%TF.GenerationSoftware,Altium Limited,Altium Designer,20.0.13 (296)*%
G04 Layer_Color=65535*
%FSLAX44Y44*%
%MOMM*%
%TF.FileFunction,Legend,Top*%
%TF.Part,Single*%
G01*
G75*
%TA.AperFunction,NonConductor*%
%ADD59C,0.2000*%
%ADD60C,0.2500*%
%ADD61C,0.6000*%
%ADD62C,0.1270*%
%ADD63C,0.2540*%
%ADD64C,0.3810*%
%ADD65C,0.2032*%
%ADD66C,0.1000*%
D59*
X146761Y186462D02*
G03*
X146761Y186462I-12700J0D01*
G01*
X113741D02*
Y201702D01*
Y171222D02*
Y186462D01*
X154381D02*
Y201702D01*
Y171222D02*
Y186462D01*
X123901Y211862D02*
X144221D01*
X123901D02*
X134061D01*
X123901Y161062D02*
X144221D01*
X217500Y292500D02*
Y357500D01*
X282500Y292500D02*
Y357500D01*
X217500D02*
X282500D01*
X217500Y292500D02*
X282500D01*
X117935Y248644D02*
Y362182D01*
X68404D02*
X117935D01*
X68404Y248644D02*
Y362182D01*
Y248644D02*
X117935D01*
X147385Y395604D02*
X149385D01*
X147385Y383604D02*
X149385D01*
X143235Y444118D02*
X145235D01*
X143235Y432118D02*
X145235D01*
X416688Y307436D02*
Y309436D01*
X428688Y307436D02*
Y309436D01*
X479444Y166969D02*
X482444D01*
X479444Y129969D02*
X482444D01*
X456444Y166969D02*
X459444D01*
X456444Y129969D02*
X459444D01*
X482444D02*
Y166969D01*
X456444Y129969D02*
Y166969D01*
X391316Y130096D02*
X394316D01*
X391316Y167096D02*
X394316D01*
X414316Y130096D02*
X417316D01*
X414316Y167096D02*
X417316D01*
X391316Y130096D02*
Y167096D01*
X417316Y130096D02*
Y167096D01*
X478748Y217077D02*
Y251077D01*
X411748Y217077D02*
Y251077D01*
X478748D01*
X411748Y217077D02*
X478748D01*
X139185Y273686D02*
X141186D01*
X139185Y285686D02*
X141186D01*
X388494Y306204D02*
Y308204D01*
X400494Y306204D02*
Y308204D01*
X420034Y489584D02*
X422034D01*
X420034Y477584D02*
X422034D01*
X50703Y529072D02*
X52703D01*
X50703Y541072D02*
X52703D01*
X50647Y548630D02*
X52647D01*
X50647Y560630D02*
X52647D01*
X50685Y568188D02*
X52685D01*
X50685Y580188D02*
X52685D01*
X50883Y588000D02*
X52883D01*
X50883Y600000D02*
X52883D01*
X51081Y607812D02*
X53081D01*
X51081Y619812D02*
X53081D01*
X51103Y627370D02*
X53103D01*
X51103Y639370D02*
X53103D01*
X418615Y641868D02*
X420615D01*
X418615Y629868D02*
X420615D01*
X418577Y622056D02*
X420577D01*
X418577Y610056D02*
X420577D01*
X418648Y542814D02*
X420648D01*
X418648Y530814D02*
X420648D01*
X418547Y602295D02*
X420547D01*
X418547Y590295D02*
X420547D01*
X418596Y582764D02*
X420596D01*
X418596Y570764D02*
X420596D01*
X418596Y562764D02*
X420596D01*
X418596Y550764D02*
X420596D01*
X277996Y535926D02*
X399916D01*
Y647686D01*
X79876D02*
X399916D01*
X79876Y535926D02*
Y647686D01*
Y535926D02*
X277996D01*
X379596Y601966D02*
Y612126D01*
Y596886D02*
Y601966D01*
Y596886D02*
X387216Y589266D01*
X379596Y571486D02*
Y589266D01*
X354196Y601966D02*
Y612126D01*
Y596886D02*
X361816Y589266D01*
X354196Y571486D02*
Y589266D01*
X328796Y601966D02*
Y612126D01*
Y596886D02*
X336416Y589266D01*
X328796Y571486D02*
Y589266D01*
X303396Y601966D02*
Y612126D01*
Y596886D02*
X311016Y589266D01*
X303396Y571486D02*
Y589266D01*
X277996Y601966D02*
Y612126D01*
Y596886D02*
X285616Y589266D01*
X277996Y571486D02*
Y589266D01*
X252596Y601966D02*
Y612126D01*
Y596886D02*
X260216Y589266D01*
X252596Y571486D02*
Y589266D01*
X227196Y601966D02*
Y612126D01*
Y596886D02*
X234816Y589266D01*
X227196Y571486D02*
Y589266D01*
X201796Y601966D02*
Y612126D01*
Y596886D02*
X209416Y589266D01*
X201796Y571486D02*
Y589266D01*
X150996Y601966D02*
Y612126D01*
Y596886D02*
X158616Y589266D01*
X150996Y571486D02*
Y589266D01*
X125596Y601966D02*
Y612126D01*
Y596886D02*
X133216Y589266D01*
X125596Y571486D02*
Y589266D01*
X176396Y601966D02*
Y612126D01*
Y596886D02*
X184016Y589266D01*
X176396Y571486D02*
Y589266D01*
X100196Y601966D02*
Y612126D01*
Y596886D02*
X107816Y589266D01*
X100196Y571486D02*
Y589266D01*
X354196Y596886D02*
Y601966D01*
X328796Y596886D02*
Y601966D01*
X303396Y596886D02*
Y601966D01*
X277996Y596886D02*
Y601966D01*
X252596Y596886D02*
Y601966D01*
X227196Y596886D02*
Y601966D01*
X201796Y596886D02*
Y601966D01*
X176396Y596886D02*
Y601966D01*
X150996Y596886D02*
Y601966D01*
X125596Y596886D02*
Y601966D01*
X100196Y596886D02*
Y601966D01*
X139959Y322454D02*
X141959D01*
X139959Y334454D02*
X141959D01*
D60*
X209250Y359500D02*
G03*
X209250Y359500I-1250J0D01*
G01*
X459194Y173469D02*
G03*
X459194Y173469I-1250J0D01*
G01*
X417066Y123596D02*
G03*
X417066Y123596I-1250J0D01*
G01*
X411998Y204077D02*
G03*
X411998Y204077I-1250J0D01*
G01*
D61*
X230500Y347500D02*
G03*
X230500Y347500I-3000J0D01*
G01*
D62*
X114995Y409727D02*
G03*
X114995Y409727I-10473J0D01*
G01*
X361965Y49582D02*
G03*
X361965Y49582I-33529J0D01*
G01*
X393595Y225538D02*
G03*
X393595Y225538I-33529J0D01*
G01*
X42818Y197306D02*
Y216356D01*
X9798D02*
X42818D01*
X9798Y109676D02*
Y216356D01*
Y109676D02*
X42818D01*
Y197306D01*
X437760Y299686D02*
Y336516D01*
Y299686D02*
X484750D01*
Y398746D01*
X437760D02*
X484750D01*
X437760Y336516D02*
Y398746D01*
Y326356D02*
X439030D01*
X440300Y327626D01*
Y373346D01*
X439030Y374616D02*
X440300Y373346D01*
X437760Y374616D02*
X439030D01*
D63*
X462868Y102651D02*
G03*
X462868Y102651I-1270J0D01*
G01*
X175058Y19460D02*
Y70260D01*
Y19460D02*
X281738D01*
Y70260D01*
X175058D02*
X281738D01*
D64*
X389756Y589266D02*
G03*
X389756Y589266I-2540J0D01*
G01*
X364356D02*
G03*
X364356Y589266I-2540J0D01*
G01*
X338956D02*
G03*
X338956Y589266I-2540J0D01*
G01*
X313556D02*
G03*
X313556Y589266I-2540J0D01*
G01*
X288156D02*
G03*
X288156Y589266I-2540J0D01*
G01*
X262756D02*
G03*
X262756Y589266I-2540J0D01*
G01*
X237356D02*
G03*
X237356Y589266I-2540J0D01*
G01*
X211956D02*
G03*
X211956Y589266I-2540J0D01*
G01*
X161156D02*
G03*
X161156Y589266I-2540J0D01*
G01*
X135756D02*
G03*
X135756Y589266I-2540J0D01*
G01*
X186556D02*
G03*
X186556Y589266I-2540J0D01*
G01*
X110356D02*
G03*
X110356Y589266I-2540J0D01*
G01*
D65*
X375706Y460140D02*
X488736D01*
Y427120D02*
Y460140D01*
X349036Y427120D02*
X488736D01*
X349036D02*
Y460140D01*
X375706D01*
X483188Y11211D02*
Y12481D01*
X375238Y11211D02*
X483188D01*
X375238D02*
Y95031D01*
X483188D01*
Y12481D02*
Y95031D01*
X47698Y53844D02*
X160728D01*
Y20824D02*
Y53844D01*
X21028Y20824D02*
X160728D01*
X21028D02*
Y53844D01*
X47698D01*
D66*
X79947Y221106D02*
X78614Y222439D01*
X75948D01*
X74616Y221106D01*
Y215774D01*
X75948Y214441D01*
X78614D01*
X79947Y215774D01*
X82613Y222439D02*
X87944D01*
Y221106D01*
X82613Y215774D01*
Y214441D01*
X128081Y231266D02*
X126748Y232599D01*
X124083D01*
X122750Y231266D01*
Y229933D01*
X124083Y228600D01*
X126748D01*
X128081Y227267D01*
Y225934D01*
X126748Y224601D01*
X124083D01*
X122750Y225934D01*
X130747Y232599D02*
Y224601D01*
X133413Y227267D01*
X136079Y224601D01*
Y232599D01*
X138744Y224601D02*
X141410D01*
X140077D01*
Y232599D01*
X138744Y231266D01*
X33020Y503046D02*
X31687Y504379D01*
X29021D01*
X27688Y503046D01*
Y497714D01*
X29021Y496381D01*
X31687D01*
X33020Y497714D01*
X35686Y496381D02*
X38352D01*
X37019D01*
Y504379D01*
X35686Y503046D01*
X54547Y500506D02*
X53214Y501839D01*
X50548D01*
X49215Y500506D01*
Y495174D01*
X50548Y493841D01*
X53214D01*
X54547Y495174D01*
X62544Y493841D02*
X57213D01*
X62544Y499173D01*
Y500506D01*
X61212Y501839D01*
X58546D01*
X57213Y500506D01*
X200408Y379919D02*
Y373254D01*
X201741Y371921D01*
X204407D01*
X205740Y373254D01*
Y379919D01*
X208406Y371921D02*
X211072D01*
X209739D01*
Y379919D01*
X208406Y378586D01*
X78488Y418019D02*
X83820Y410021D01*
Y418019D02*
X78488Y410021D01*
X86486D02*
X89152D01*
X87819D01*
Y418019D01*
X86486Y416686D01*
X82235Y377379D02*
X87567Y369381D01*
Y377379D02*
X82235Y369381D01*
X95564D02*
X90233D01*
X95564Y374713D01*
Y376046D01*
X94232Y377379D01*
X91566D01*
X90233Y376046D01*
X324328Y94106D02*
X322995Y95439D01*
X320329D01*
X318996Y94106D01*
Y88774D01*
X320329Y87441D01*
X322995D01*
X324328Y88774D01*
X326994Y87441D02*
X329659D01*
X328326D01*
Y95439D01*
X326994Y94106D01*
X333658Y87441D02*
X336324D01*
X334991D01*
Y95439D01*
X333658Y94106D01*
X359347Y269366D02*
X358014Y270699D01*
X355348D01*
X354016Y269366D01*
Y264034D01*
X355348Y262701D01*
X358014D01*
X359347Y264034D01*
X362013Y269366D02*
X363346Y270699D01*
X366012D01*
X367345Y269366D01*
Y268033D01*
X366012Y266700D01*
X367345Y265367D01*
Y264034D01*
X366012Y262701D01*
X363346D01*
X362013Y264034D01*
Y265367D01*
X363346Y266700D01*
X362013Y268033D01*
Y269366D01*
X363346Y266700D02*
X366012D01*
X399610Y268159D02*
Y262827D01*
X402276Y260161D01*
X404941Y262827D01*
Y268159D01*
X407607Y260161D02*
Y268159D01*
X411606D01*
X412939Y266826D01*
Y264160D01*
X411606Y262827D01*
X407607D01*
X410273D02*
X412939Y260161D01*
X415605D02*
X418270D01*
X416937D01*
Y268159D01*
X415605Y266826D01*
X10323Y531687D02*
Y539685D01*
X14322D01*
X15655Y538352D01*
Y535686D01*
X14322Y534353D01*
X10323D01*
X12989D02*
X15655Y531687D01*
X18321D02*
X20986D01*
X19654D01*
Y539685D01*
X18321Y538352D01*
X24985Y533020D02*
X26318Y531687D01*
X28984D01*
X30317Y533020D01*
Y538352D01*
X28984Y539685D01*
X26318D01*
X24985Y538352D01*
Y537019D01*
X26318Y535686D01*
X30317D01*
X11339Y551245D02*
Y559243D01*
X15338D01*
X16671Y557910D01*
Y555244D01*
X15338Y553911D01*
X11339D01*
X14005D02*
X16671Y551245D01*
X19337D02*
X22002D01*
X20670D01*
Y559243D01*
X19337Y557910D01*
X26001D02*
X27334Y559243D01*
X30000D01*
X31333Y557910D01*
Y556577D01*
X30000Y555244D01*
X31333Y553911D01*
Y552578D01*
X30000Y551245D01*
X27334D01*
X26001Y552578D01*
Y553911D01*
X27334Y555244D01*
X26001Y556577D01*
Y557910D01*
X27334Y555244D02*
X30000D01*
X12101Y568771D02*
Y576769D01*
X16100D01*
X17433Y575436D01*
Y572770D01*
X16100Y571437D01*
X12101D01*
X14767D02*
X17433Y568771D01*
X20099D02*
X22764D01*
X21432D01*
Y576769D01*
X20099Y575436D01*
X26763Y576769D02*
X32095D01*
Y575436D01*
X26763Y570104D01*
Y568771D01*
X11922Y589853D02*
Y597851D01*
X15921D01*
X17254Y596518D01*
Y593852D01*
X15921Y592519D01*
X11922D01*
X14588D02*
X17254Y589853D01*
X19919D02*
X22585D01*
X21252D01*
Y597851D01*
X19919Y596518D01*
X31916Y597851D02*
X29250Y596518D01*
X26584Y593852D01*
Y591186D01*
X27917Y589853D01*
X30583D01*
X31916Y591186D01*
Y592519D01*
X30583Y593852D01*
X26584D01*
X11847Y608903D02*
Y616901D01*
X15846D01*
X17179Y615568D01*
Y612902D01*
X15846Y611569D01*
X11847D01*
X14513D02*
X17179Y608903D01*
X19845D02*
X22510D01*
X21178D01*
Y616901D01*
X19845Y615568D01*
X31841Y616901D02*
X26509D01*
Y612902D01*
X29175Y614235D01*
X30508D01*
X31841Y612902D01*
Y610236D01*
X30508Y608903D01*
X27842D01*
X26509Y610236D01*
X12101Y629477D02*
Y637475D01*
X16100D01*
X17433Y636142D01*
Y633476D01*
X16100Y632143D01*
X12101D01*
X14767D02*
X17433Y629477D01*
X20099D02*
X22764D01*
X21432D01*
Y637475D01*
X20099Y636142D01*
X30762Y629477D02*
Y637475D01*
X26763Y633476D01*
X32095D01*
X440599Y629985D02*
Y637983D01*
X444598D01*
X445931Y636650D01*
Y633984D01*
X444598Y632651D01*
X440599D01*
X443265D02*
X445931Y629985D01*
X448597D02*
X451262D01*
X449930D01*
Y637983D01*
X448597Y636650D01*
X455261D02*
X456594Y637983D01*
X459260D01*
X460593Y636650D01*
Y635317D01*
X459260Y633984D01*
X457927D01*
X459260D01*
X460593Y632651D01*
Y631318D01*
X459260Y629985D01*
X456594D01*
X455261Y631318D01*
X440345Y611443D02*
Y619441D01*
X444344D01*
X445677Y618108D01*
Y615442D01*
X444344Y614109D01*
X440345D01*
X443011D02*
X445677Y611443D01*
X448343D02*
X451008D01*
X449676D01*
Y619441D01*
X448343Y618108D01*
X460339Y611443D02*
X455007D01*
X460339Y616775D01*
Y618108D01*
X459006Y619441D01*
X456340D01*
X455007Y618108D01*
X439392Y591885D02*
Y599883D01*
X443391D01*
X444724Y598550D01*
Y595884D01*
X443391Y594551D01*
X439392D01*
X442058D02*
X444724Y591885D01*
X447390D02*
X450055D01*
X448722D01*
Y599883D01*
X447390Y598550D01*
X454054Y591885D02*
X456720D01*
X455387D01*
Y599883D01*
X454054Y598550D01*
X440599Y571565D02*
Y579563D01*
X444598D01*
X445931Y578230D01*
Y575564D01*
X444598Y574231D01*
X440599D01*
X443265D02*
X445931Y571565D01*
X448597D02*
X451262D01*
X449930D01*
Y579563D01*
X448597Y578230D01*
X455261D02*
X456594Y579563D01*
X459260D01*
X460593Y578230D01*
Y572898D01*
X459260Y571565D01*
X456594D01*
X455261Y572898D01*
Y578230D01*
X442932Y552765D02*
Y560763D01*
X446930D01*
X448263Y559430D01*
Y556764D01*
X446930Y555431D01*
X442932D01*
X445597D02*
X448263Y552765D01*
X450929Y554098D02*
X452262Y552765D01*
X454928D01*
X456260Y554098D01*
Y559430D01*
X454928Y560763D01*
X452262D01*
X450929Y559430D01*
Y558097D01*
X452262Y556764D01*
X456260D01*
X440883Y532195D02*
Y540193D01*
X444882D01*
X446215Y538860D01*
Y536194D01*
X444882Y534861D01*
X440883D01*
X443549D02*
X446215Y532195D01*
X448881Y538860D02*
X450214Y540193D01*
X452880D01*
X454212Y538860D01*
Y537527D01*
X452880Y536194D01*
X454212Y534861D01*
Y533528D01*
X452880Y532195D01*
X450214D01*
X448881Y533528D01*
Y534861D01*
X450214Y536194D01*
X448881Y537527D01*
Y538860D01*
X450214Y536194D02*
X452880D01*
X442407Y479871D02*
Y487869D01*
X446406D01*
X447739Y486536D01*
Y483870D01*
X446406Y482537D01*
X442407D01*
X445073D02*
X447739Y479871D01*
X450405Y487869D02*
X455737D01*
Y486536D01*
X450405Y481204D01*
Y479871D01*
X398461Y329632D02*
X390463D01*
Y333630D01*
X391796Y334963D01*
X394462D01*
X395795Y333630D01*
Y329632D01*
Y332297D02*
X398461Y334963D01*
X390463Y342961D02*
X391796Y340295D01*
X394462Y337629D01*
X397128D01*
X398461Y338962D01*
Y341628D01*
X397128Y342961D01*
X395795D01*
X394462Y341628D01*
Y337629D01*
X426655Y329632D02*
X418657D01*
Y333630D01*
X419990Y334963D01*
X422656D01*
X423989Y333630D01*
Y329632D01*
Y332297D02*
X426655Y334963D01*
X418657Y342961D02*
Y337629D01*
X422656D01*
X421323Y340295D01*
Y341628D01*
X422656Y342961D01*
X425322D01*
X426655Y341628D01*
Y338962D01*
X425322Y337629D01*
X145731Y292040D02*
X137733D01*
Y296038D01*
X139066Y297371D01*
X141732D01*
X143065Y296038D01*
Y292040D01*
Y294705D02*
X145731Y297371D01*
Y304036D02*
X137733D01*
X141732Y300037D01*
Y305368D01*
X124714Y344170D02*
Y352167D01*
X128713D01*
X130046Y350835D01*
Y348169D01*
X128713Y346836D01*
X124714D01*
X127380D02*
X130046Y344170D01*
X132711Y350835D02*
X134044Y352167D01*
X136710D01*
X138043Y350835D01*
Y349502D01*
X136710Y348169D01*
X135377D01*
X136710D01*
X138043Y346836D01*
Y345503D01*
X136710Y344170D01*
X134044D01*
X132711Y345503D01*
X158435Y399861D02*
Y407859D01*
X162434D01*
X163767Y406526D01*
Y403860D01*
X162434Y402527D01*
X158435D01*
X161101D02*
X163767Y399861D01*
X171765D02*
X166433D01*
X171765Y405193D01*
Y406526D01*
X170432Y407859D01*
X167766D01*
X166433Y406526D01*
X113286Y435675D02*
Y443673D01*
X117285D01*
X118618Y442340D01*
Y439674D01*
X117285Y438341D01*
X113286D01*
X115952D02*
X118618Y435675D01*
X121284D02*
X123950D01*
X122617D01*
Y443673D01*
X121284Y442340D01*
X19050Y62738D02*
Y70735D01*
X23049D01*
X24382Y69402D01*
Y66737D01*
X23049Y65404D01*
X19050D01*
X27047Y69402D02*
X28380Y70735D01*
X31046D01*
X32379Y69402D01*
Y68070D01*
X31046Y66737D01*
X29713D01*
X31046D01*
X32379Y65404D01*
Y64071D01*
X31046Y62738D01*
X28380D01*
X27047Y64071D01*
X171958Y80518D02*
Y88515D01*
X175957D01*
X177290Y87183D01*
Y84517D01*
X175957Y83184D01*
X171958D01*
X185287Y80518D02*
X179955D01*
X185287Y85850D01*
Y87183D01*
X183954Y88515D01*
X181288D01*
X179955Y87183D01*
X352808Y6161D02*
Y14159D01*
X356807D01*
X358140Y12826D01*
Y10160D01*
X356807Y8827D01*
X352808D01*
X360806Y6161D02*
X363472D01*
X362139D01*
Y14159D01*
X360806Y12826D01*
X334455Y446721D02*
X331789D01*
X333122D01*
Y440056D01*
X331789Y438723D01*
X330456D01*
X329123Y440056D01*
X337121Y445388D02*
X338454Y446721D01*
X341120D01*
X342453Y445388D01*
Y444055D01*
X341120Y442722D01*
X339787D01*
X341120D01*
X342453Y441389D01*
Y440056D01*
X341120Y438723D01*
X338454D01*
X337121Y440056D01*
X12952Y233549D02*
X10286D01*
X11619D01*
Y226885D01*
X10286Y225552D01*
X8953D01*
X7620Y226885D01*
X20949Y225552D02*
X15617D01*
X20949Y230884D01*
Y232216D01*
X19616Y233549D01*
X16950D01*
X15617Y232216D01*
X443482Y413381D02*
X440816D01*
X442149D01*
Y406717D01*
X440816Y405384D01*
X439483D01*
X438150Y406717D01*
X446147Y405384D02*
X448813D01*
X447480D01*
Y413381D01*
X446147Y412048D01*
X86933Y523905D02*
Y515907D01*
X90932D01*
X92265Y517240D01*
Y522572D01*
X90932Y523905D01*
X86933D01*
X94931D02*
X97597D01*
X96264D01*
Y515907D01*
X94931D01*
X97597D01*
X101595D02*
Y523905D01*
X105594D01*
X106927Y522572D01*
Y519906D01*
X105594Y518573D01*
X101595D01*
X109593Y515907D02*
X112259D01*
X110926D01*
Y523905D01*
X109593Y522572D01*
X385004Y119823D02*
Y111825D01*
X389002D01*
X390335Y113158D01*
Y118490D01*
X389002Y119823D01*
X385004D01*
X398332Y111825D02*
X393001D01*
X398332Y117157D01*
Y118490D01*
X397000Y119823D01*
X394334D01*
X393001Y118490D01*
X476506Y120077D02*
Y112079D01*
X480505D01*
X481838Y113412D01*
Y118744D01*
X480505Y120077D01*
X476506D01*
X484504Y112079D02*
X487170D01*
X485837D01*
Y120077D01*
X484504Y118744D01*
X441291Y182246D02*
X442624Y180913D01*
X445290D01*
X446623Y182246D01*
Y187578D01*
X445290Y188911D01*
X442624D01*
X441291Y187578D01*
X438625Y188911D02*
X435960D01*
X437292D01*
Y180913D01*
X438625Y182246D01*
X431961D02*
X430628Y180913D01*
X427962D01*
X426629Y182246D01*
Y187578D01*
X427962Y188911D01*
X430628D01*
X431961Y187578D01*
Y182246D01*
X57087Y221106D02*
X55754Y222439D01*
X53088D01*
X51755Y221106D01*
Y215774D01*
X53088Y214441D01*
X55754D01*
X57087Y215774D01*
X59753D02*
X61086Y214441D01*
X63752D01*
X65085Y215774D01*
Y221106D01*
X63752Y222439D01*
X61086D01*
X59753Y221106D01*
Y219773D01*
X61086Y218440D01*
X65085D01*
X10542Y278321D02*
X9209Y276988D01*
Y274322D01*
X10542Y272990D01*
X15874D01*
X17207Y274322D01*
Y276988D01*
X15874Y278321D01*
X9209Y286318D02*
X10542Y283653D01*
X13208Y280987D01*
X15874D01*
X17207Y282320D01*
Y284986D01*
X15874Y286318D01*
X14541D01*
X13208Y284986D01*
Y280987D01*
X10288Y332423D02*
X8955Y331090D01*
Y328424D01*
X10288Y327091D01*
X15620D01*
X16953Y328424D01*
Y331090D01*
X15620Y332423D01*
X8955Y340420D02*
Y335089D01*
X12954D01*
X11621Y337755D01*
Y339088D01*
X12954Y340420D01*
X15620D01*
X16953Y339088D01*
Y336422D01*
X15620Y335089D01*
X13145Y431164D02*
X11812Y432497D01*
X9146D01*
X7814Y431164D01*
Y425832D01*
X9146Y424499D01*
X11812D01*
X13145Y425832D01*
X19810Y424499D02*
Y432497D01*
X15811Y428498D01*
X21142D01*
X12891Y407542D02*
X11558Y408875D01*
X8892D01*
X7559Y407542D01*
Y402210D01*
X8892Y400877D01*
X11558D01*
X12891Y402210D01*
X15557Y407542D02*
X16890Y408875D01*
X19556D01*
X20889Y407542D01*
Y406209D01*
X19556Y404876D01*
X18223D01*
X19556D01*
X20889Y403543D01*
Y402210D01*
X19556Y400877D01*
X16890D01*
X15557Y402210D01*
%TF.MD5,33746e684a9eb1fa290a52c76425e618*%
M02*
