%TF.GenerationSoftware,Altium Limited,Altium Designer,20.0.13 (296)*%
G04 Layer_Color=32768*
%FSLAX44Y44*%
%MOMM*%
%TF.FileFunction,Other,Mechanical_15*%
%TF.Part,Single*%
G01*
G75*
%TA.AperFunction,NonConductor*%
%ADD62C,0.1270*%
%ADD65C,0.2032*%
%ADD66C,0.1000*%
%ADD78C,0.0500*%
%ADD79C,0.0762*%
D62*
X366494Y49582D02*
G03*
X366494Y49582I-38058J0D01*
G01*
X398123Y225538D02*
G03*
X398123Y225538I-38058J0D01*
G01*
X45358Y179526D02*
Y218896D01*
X7258D02*
X45358D01*
X7258Y107136D02*
Y218896D01*
Y107136D02*
X42818D01*
X45358D01*
Y179526D01*
D65*
X372698Y8671D02*
X466678D01*
X372698D02*
Y97571D01*
X485728D01*
Y8671D02*
Y97571D01*
X466678Y8671D02*
X485728D01*
X432388Y51851D02*
Y58201D01*
Y45501D02*
Y58201D01*
Y45501D02*
Y51851D01*
X438738D01*
X432388D02*
X438738D01*
X426038D02*
X432388D01*
X426038D02*
X432388D01*
D66*
X79120Y185852D02*
Y195852D01*
X74120Y190852D02*
X84120D01*
X26622Y471857D02*
X36622D01*
X31622Y466857D02*
Y476857D01*
X54482Y466913D02*
Y476913D01*
X49482Y471913D02*
X59482D01*
X245000Y325000D02*
X255000D01*
X250000Y320000D02*
Y330000D01*
X143385Y389604D02*
X153385D01*
X148385Y384604D02*
Y394604D01*
X139235Y438118D02*
X149235D01*
X144235Y433118D02*
Y443118D01*
X57362Y186059D02*
Y196059D01*
X52362Y191059D02*
X62362D01*
X38563Y426592D02*
X48563D01*
X43563Y421592D02*
Y431592D01*
X38687Y403478D02*
X48687D01*
X43687Y398478D02*
Y408478D01*
X422688Y303436D02*
Y313436D01*
X417688Y308436D02*
X427688D01*
X438362Y150132D02*
Y160132D01*
X433362Y155132D02*
X443362D01*
X464444Y148469D02*
X474444D01*
X469444Y143469D02*
Y153469D01*
X399316Y148596D02*
X409316D01*
X404316Y143596D02*
Y153596D01*
X440248Y234077D02*
X450248D01*
X445248Y229077D02*
Y239077D01*
X33922Y279782D02*
X43922D01*
X38922Y274782D02*
Y284782D01*
X33695Y333122D02*
X43695D01*
X38695Y328122D02*
Y338122D01*
X135186Y279686D02*
X145186D01*
X140185Y274686D02*
Y284686D01*
X394494Y302204D02*
Y312204D01*
X389494Y307204D02*
X399494D01*
X416034Y483584D02*
X426034D01*
X421034Y478584D02*
Y488584D01*
X51703Y530072D02*
Y540072D01*
X46703Y535072D02*
X56703D01*
X51647Y549630D02*
Y559630D01*
X46647Y554630D02*
X56647D01*
X51685Y569188D02*
Y579188D01*
X46685Y574188D02*
X56685D01*
X51883Y589000D02*
Y599000D01*
X46883Y594000D02*
X56883D01*
X52081Y608812D02*
Y618812D01*
X47081Y613812D02*
X57081D01*
X52103Y628370D02*
Y638370D01*
X47103Y633370D02*
X57103D01*
X419615Y630868D02*
Y640868D01*
X414615Y635868D02*
X424615D01*
X419577Y611056D02*
Y621056D01*
X414577Y616056D02*
X424577D01*
X419648Y531814D02*
Y541814D01*
X414648Y536814D02*
X424648D01*
X419547Y591295D02*
Y601295D01*
X414547Y596295D02*
X424547D01*
X419595Y571764D02*
Y581764D01*
X414595Y576764D02*
X424595D01*
X419596Y551764D02*
Y561764D01*
X414596Y556764D02*
X424596D01*
X135959Y328454D02*
X145959D01*
X140959Y323454D02*
Y333454D01*
D78*
X69120Y171352D02*
X89120D01*
X69120Y210352D02*
X89120D01*
X69120Y171352D02*
Y210352D01*
X89120Y171352D02*
Y210352D01*
X41622Y452357D02*
Y491357D01*
X21622Y452357D02*
Y491357D01*
X41622D01*
X21622Y452357D02*
X41622D01*
X44482Y452413D02*
X64482D01*
X44482Y491413D02*
X64482D01*
X44482Y452413D02*
Y491413D01*
X64482Y452413D02*
Y491413D01*
X195000Y270000D02*
Y380000D01*
X305000Y270000D02*
Y380000D01*
X195000D02*
X305000D01*
X195000Y270000D02*
X305000D01*
X131385Y380104D02*
Y399104D01*
X165385Y380104D02*
Y399104D01*
X131385D02*
X165385D01*
X131385Y380104D02*
X165385D01*
X127235Y428618D02*
Y447618D01*
X161235Y428618D02*
Y447618D01*
X127235D02*
X161235D01*
X127235Y428618D02*
X161235D01*
X47362Y171558D02*
X67362D01*
X47362Y210558D02*
X67362D01*
X47362Y171558D02*
Y210558D01*
X67362Y171558D02*
Y210558D01*
X63063Y416592D02*
Y436592D01*
X24063Y416592D02*
Y436592D01*
Y416592D02*
X63063D01*
X24063Y436592D02*
X63063D01*
X63187Y393478D02*
Y413478D01*
X24187Y393478D02*
Y413478D01*
Y393478D02*
X63187D01*
X24187Y413478D02*
X63187D01*
X413188Y291436D02*
X432188D01*
X413188Y325436D02*
X432188D01*
X413188Y291436D02*
Y325436D01*
X432188Y291436D02*
Y325436D01*
X428362Y135632D02*
X448362D01*
X428362Y174632D02*
X448362D01*
X428362Y135632D02*
Y174632D01*
X448362Y135632D02*
Y174632D01*
X484944Y122219D02*
Y174719D01*
X453944Y122219D02*
Y174719D01*
X484944D01*
X453944Y122219D02*
X484944D01*
X388816Y122346D02*
Y174846D01*
X419816Y122346D02*
Y174846D01*
X388816Y122346D02*
X419816D01*
X388816Y174846D02*
X419816D01*
X481248Y191577D02*
Y276577D01*
X409248Y191577D02*
Y276577D01*
X481248D01*
X409248Y191577D02*
X481248D01*
X19422Y269782D02*
Y289782D01*
X58422Y269782D02*
Y289782D01*
X19422D02*
X58422D01*
X19422Y269782D02*
X58422D01*
X19195Y323122D02*
Y343122D01*
X58195Y323122D02*
Y343122D01*
X19195D02*
X58195D01*
X19195Y323122D02*
X58195D01*
X157186Y270186D02*
Y289186D01*
X123186Y270186D02*
Y289186D01*
Y270186D02*
X157186D01*
X123186Y289186D02*
X157186D01*
X384994Y290204D02*
X403994D01*
X384994Y324204D02*
X403994D01*
X384994Y290204D02*
Y324204D01*
X403994Y290204D02*
Y324204D01*
X404034Y474084D02*
Y493084D01*
X438034Y474084D02*
Y493084D01*
X404034D02*
X438034D01*
X404034Y474084D02*
X438034D01*
X34703Y525572D02*
X68703D01*
X34703Y544572D02*
X68703D01*
Y525572D02*
Y544572D01*
X34703Y525572D02*
Y544572D01*
X34647Y545130D02*
X68647D01*
X34647Y564130D02*
X68647D01*
Y545130D02*
Y564130D01*
X34647Y545130D02*
Y564130D01*
X34685Y564688D02*
X68685D01*
X34685Y583688D02*
X68685D01*
Y564688D02*
Y583688D01*
X34685Y564688D02*
Y583688D01*
X34883Y584500D02*
X68883D01*
X34883Y603500D02*
X68883D01*
Y584500D02*
Y603500D01*
X34883Y584500D02*
Y603500D01*
X35081Y604312D02*
X69081D01*
X35081Y623312D02*
X69081D01*
Y604312D02*
Y623312D01*
X35081Y604312D02*
Y623312D01*
X35103Y623870D02*
X69103D01*
X35103Y642870D02*
X69103D01*
Y623870D02*
Y642870D01*
X35103Y623870D02*
Y642870D01*
X402615Y645368D02*
X436615D01*
X402615Y626368D02*
X436615D01*
X402615D02*
Y645368D01*
X436615Y626368D02*
Y645368D01*
X402578Y625556D02*
X436577D01*
X402578Y606556D02*
X436577D01*
X402578D02*
Y625556D01*
X436577Y606556D02*
Y625556D01*
X402648Y546314D02*
X436648D01*
X402648Y527314D02*
X436648D01*
X402648D02*
Y546314D01*
X436648Y527314D02*
Y546314D01*
X402547Y605795D02*
X436547D01*
X402547Y586795D02*
X436547D01*
X402547D02*
Y605795D01*
X436547Y586795D02*
Y605795D01*
X402595Y586264D02*
X436595D01*
X402595Y567264D02*
X436595D01*
X402595D02*
Y586264D01*
X436595Y567264D02*
Y586264D01*
X402596Y566264D02*
X436596D01*
X402596Y547264D02*
X436596D01*
X402596D02*
Y566264D01*
X436596Y547264D02*
Y566264D01*
X157959Y318954D02*
Y337954D01*
X123959Y318954D02*
Y337954D01*
Y318954D02*
X157959D01*
X123959Y337954D02*
X157959D01*
D79*
X380786Y462680D02*
X491276D01*
Y424580D02*
Y462680D01*
X346496Y424580D02*
X491276D01*
X346496D02*
Y462680D01*
X380786D01*
X171248Y74070D02*
X201728D01*
X171248Y15650D02*
Y74070D01*
Y15650D02*
X285548D01*
Y74070D01*
X201728D02*
X285548D01*
X229668Y44860D02*
Y49940D01*
Y39780D02*
Y49940D01*
Y39780D02*
Y44860D01*
X224588D02*
X229668D01*
X224588D02*
X229668D01*
X234748D01*
X229668D02*
X234748D01*
X52778Y56384D02*
X163268D01*
Y18284D02*
Y56384D01*
X18488Y18284D02*
X163268D01*
X18488D02*
Y56384D01*
X52778D01*
%TF.MD5,9d78316da5e325732e4bed37326874eb*%
M02*
