%TF.GenerationSoftware,Altium Limited,Altium Designer,20.0.13 (296)*%
G04 Layer_Color=0*
%FSLAX44Y44*%
%MOMM*%
%TF.FileFunction,Plated,1,2,PTH,Drill*%
%TF.Part,Single*%
G01*
G75*
%TA.AperFunction,ComponentDrill*%
%ADD81C,0.3800*%
%ADD82C,0.5000*%
%ADD83C,0.6000*%
%ADD84C,0.6000*%
%ADD85C,0.8000*%
%ADD86C,1.5000*%
%ADD87C,0.8000*%
%TA.AperFunction,ViaDrill,NotFilled*%
%ADD88C,0.5080*%
%ADD89C,4.0000*%
D81*
X104522Y405219D02*
D03*
Y414235D02*
D03*
D82*
X93042Y279886D02*
D03*
Y329886D02*
D03*
D83*
X328436Y37282D02*
D03*
Y62282D02*
D03*
D84*
X347766Y225538D02*
D03*
X372766D02*
D03*
D85*
X368086Y443630D02*
D03*
X393486D02*
D03*
X418886D02*
D03*
X444286D02*
D03*
X469686D02*
D03*
X100196Y553706D02*
D03*
X125596D02*
D03*
X150996D02*
D03*
X176396D02*
D03*
X201796D02*
D03*
X227196D02*
D03*
X252596D02*
D03*
X277996D02*
D03*
X303396D02*
D03*
X328796D02*
D03*
X354196D02*
D03*
X379596D02*
D03*
X100196Y629906D02*
D03*
X125596D02*
D03*
X150996D02*
D03*
X176396D02*
D03*
X201796D02*
D03*
X227196D02*
D03*
X252596D02*
D03*
X277996D02*
D03*
X303396D02*
D03*
X328796D02*
D03*
X354196D02*
D03*
X379596D02*
D03*
X191568Y32160D02*
D03*
X216968D02*
D03*
X242368D02*
D03*
X267768D02*
D03*
X191568Y57560D02*
D03*
X216968D02*
D03*
X242368D02*
D03*
X267768D02*
D03*
X40078Y37334D02*
D03*
X65478D02*
D03*
X90878D02*
D03*
X116278D02*
D03*
X141678D02*
D03*
D86*
X406988Y51851D02*
D03*
X457788D02*
D03*
D87*
X26308Y124916D02*
D03*
Y150316D02*
D03*
Y175716D02*
D03*
Y201116D02*
D03*
X455540Y380006D02*
D03*
Y360006D02*
D03*
Y340006D02*
D03*
Y320006D02*
D03*
D88*
X355600Y373380D02*
D03*
X259080Y330200D02*
D03*
X234817Y328317D02*
D03*
X378460Y281940D02*
D03*
X393700Y393700D02*
D03*
X424180Y241300D02*
D03*
X243840Y208280D02*
D03*
X254000Y228600D02*
D03*
X352980Y307420D02*
D03*
X467360Y228600D02*
D03*
X426720Y101600D02*
D03*
X312420Y327660D02*
D03*
X325120Y317500D02*
D03*
X342900Y335280D02*
D03*
X327660Y350520D02*
D03*
X269240Y228600D02*
D03*
X246380Y101600D02*
D03*
X284480Y228600D02*
D03*
X299720D02*
D03*
X314960D02*
D03*
X172720Y248920D02*
D03*
X167640Y261620D02*
D03*
X139700Y406400D02*
D03*
X27940Y248920D02*
D03*
X78740Y462280D02*
D03*
D89*
X325000Y129032D02*
D03*
Y508508D02*
D03*
%TF.MD5,a0aea07983bf6990d906278475a0be82*%
M02*
