%TF.GenerationSoftware,Altium Limited,Altium Designer,20.0.13 (296)*%
G04 Layer_Color=8388736*
%FSLAX44Y44*%
%MOMM*%
%TF.FileFunction,Soldermask,Top*%
%TF.Part,Single*%
G01*
G75*
%TA.AperFunction,ComponentPad*%
%ADD41C,0.7532*%
%ADD42C,1.4732*%
%ADD43C,1.4032*%
%ADD44R,1.4032X1.4032*%
%ADD45R,1.4032X1.4032*%
%ADD46R,1.6032X2.7032*%
%ADD47O,1.6032X2.7032*%
%ADD48C,3.2032*%
%ADD49R,3.2032X3.2032*%
%ADD50O,1.7272X2.7032*%
%ADD51O,2.7032X1.4032*%
%ADD52R,2.7032X1.4032*%
%ADD53R,1.6032X1.6032*%
%ADD54C,1.6032*%
%ADD55O,2.7032X1.6032*%
%ADD56R,2.7032X1.6032*%
%TA.AperFunction,ViaPad*%
%ADD57C,1.0922*%
%ADD58C,5.2032*%
%TA.AperFunction,SMDPad,CuDef*%
%ADD67R,1.7032X1.6032*%
%ADD68O,1.2032X1.6032*%
%ADD69R,1.5032X0.5032*%
%ADD70R,0.5032X1.5032*%
%ADD71R,1.1532X1.6032*%
%ADD72R,1.6032X1.7032*%
%ADD73R,1.6032X1.1532*%
%ADD74R,1.4032X2.2032*%
%ADD75R,3.5532X2.3532*%
%ADD76R,1.4032X2.3532*%
D41*
X104522Y405219D02*
D03*
Y414235D02*
D03*
D42*
X93042Y279886D02*
D03*
Y329886D02*
D03*
D43*
X328436Y37282D02*
D03*
X347766Y225538D02*
D03*
D44*
X328436Y62282D02*
D03*
D45*
X372766Y225538D02*
D03*
D46*
X368086Y443630D02*
D03*
X40078Y37334D02*
D03*
D47*
X393486Y443630D02*
D03*
X418886D02*
D03*
X444286D02*
D03*
X469686D02*
D03*
X65478Y37334D02*
D03*
X90878D02*
D03*
X116278D02*
D03*
X141678D02*
D03*
D48*
X406988Y51851D02*
D03*
D49*
X457788D02*
D03*
D50*
X100196Y553706D02*
D03*
X125596D02*
D03*
X150996D02*
D03*
X176396D02*
D03*
X201796D02*
D03*
X227196D02*
D03*
X252596D02*
D03*
X277996D02*
D03*
X303396D02*
D03*
X328796D02*
D03*
X354196D02*
D03*
X379596D02*
D03*
X100196Y629906D02*
D03*
X125596D02*
D03*
X150996D02*
D03*
X176396D02*
D03*
X201796D02*
D03*
X227196D02*
D03*
X252596D02*
D03*
X277996D02*
D03*
X303396D02*
D03*
X328796D02*
D03*
X354196D02*
D03*
X379596D02*
D03*
D51*
X26308Y124916D02*
D03*
Y150316D02*
D03*
Y175716D02*
D03*
D52*
Y201116D02*
D03*
D53*
X191568Y32160D02*
D03*
D54*
X216968D02*
D03*
X242368D02*
D03*
X267768D02*
D03*
X191568Y57560D02*
D03*
X216968D02*
D03*
X242368D02*
D03*
X267768D02*
D03*
D55*
X455540Y380006D02*
D03*
Y360006D02*
D03*
Y340006D02*
D03*
D56*
Y320006D02*
D03*
D57*
X355600Y373380D02*
D03*
X259080Y330200D02*
D03*
X234817Y328317D02*
D03*
X378460Y281940D02*
D03*
X393700Y393700D02*
D03*
X424180Y241300D02*
D03*
X243840Y208280D02*
D03*
X254000Y228600D02*
D03*
X352980Y307420D02*
D03*
X467360Y228600D02*
D03*
X426720Y101600D02*
D03*
X312420Y327660D02*
D03*
X325120Y317500D02*
D03*
X342900Y335280D02*
D03*
X327660Y350520D02*
D03*
X269240Y228600D02*
D03*
X246380Y101600D02*
D03*
X284480Y228600D02*
D03*
X299720D02*
D03*
X314960D02*
D03*
X172720Y248920D02*
D03*
X167640Y261620D02*
D03*
X139700Y406400D02*
D03*
X27940Y248920D02*
D03*
X78740Y462280D02*
D03*
D58*
X325000Y129032D02*
D03*
Y508508D02*
D03*
D67*
X79120Y181102D02*
D03*
Y200602D02*
D03*
X31622Y481607D02*
D03*
Y462107D02*
D03*
X54482Y462163D02*
D03*
Y481663D02*
D03*
X57362Y181308D02*
D03*
Y200809D02*
D03*
X438362Y145382D02*
D03*
Y164882D02*
D03*
D68*
X152561Y212462D02*
D03*
X115561D02*
D03*
X152561Y160462D02*
D03*
X115561D02*
D03*
D69*
X208000Y352500D02*
D03*
Y347500D02*
D03*
Y342500D02*
D03*
Y337500D02*
D03*
Y332500D02*
D03*
Y327500D02*
D03*
Y322500D02*
D03*
Y317500D02*
D03*
Y312500D02*
D03*
Y307500D02*
D03*
Y302500D02*
D03*
Y297500D02*
D03*
X292000D02*
D03*
Y302500D02*
D03*
Y307500D02*
D03*
Y312500D02*
D03*
Y317500D02*
D03*
Y322500D02*
D03*
Y327500D02*
D03*
Y332500D02*
D03*
Y337500D02*
D03*
Y342500D02*
D03*
Y347500D02*
D03*
Y352500D02*
D03*
D70*
X222500Y283000D02*
D03*
X227500D02*
D03*
X232500D02*
D03*
X237500D02*
D03*
X242500D02*
D03*
X247500D02*
D03*
X252500D02*
D03*
X257500D02*
D03*
X262500D02*
D03*
X267500D02*
D03*
X272500D02*
D03*
X277500D02*
D03*
Y367000D02*
D03*
X272500D02*
D03*
X267500D02*
D03*
X262500D02*
D03*
X257500D02*
D03*
X252500D02*
D03*
X247500D02*
D03*
X242500D02*
D03*
X237500D02*
D03*
X232500D02*
D03*
X227500D02*
D03*
X222500D02*
D03*
D71*
X138885Y389604D02*
D03*
X157885D02*
D03*
X134735Y438118D02*
D03*
X153735D02*
D03*
X149686Y279686D02*
D03*
X130686D02*
D03*
X411534Y483584D02*
D03*
X430534D02*
D03*
X61203Y535072D02*
D03*
X42203D02*
D03*
X61147Y554630D02*
D03*
X42147D02*
D03*
X61185Y574188D02*
D03*
X42185D02*
D03*
X61383Y594000D02*
D03*
X42383D02*
D03*
X61581Y613812D02*
D03*
X42581D02*
D03*
X61603Y633370D02*
D03*
X42603D02*
D03*
X410115Y635868D02*
D03*
X429115D02*
D03*
X410078Y616056D02*
D03*
X429077D02*
D03*
X410148Y536814D02*
D03*
X429148D02*
D03*
X410047Y596295D02*
D03*
X429047D02*
D03*
X410095Y576764D02*
D03*
X429095D02*
D03*
X410096Y556764D02*
D03*
X429096D02*
D03*
X150459Y328454D02*
D03*
X131459D02*
D03*
D72*
X53313Y426592D02*
D03*
X33813D02*
D03*
X53437Y403478D02*
D03*
X33937D02*
D03*
X29172Y279782D02*
D03*
X48672D02*
D03*
X28945Y333122D02*
D03*
X48445D02*
D03*
D73*
X422688Y298936D02*
D03*
Y317936D02*
D03*
X394494Y297704D02*
D03*
Y316704D02*
D03*
D74*
X469444Y162469D02*
D03*
Y134469D02*
D03*
X404316Y134596D02*
D03*
Y162596D02*
D03*
D75*
X445248Y264077D02*
D03*
D76*
X468248Y204077D02*
D03*
X445248D02*
D03*
X422248D02*
D03*
%TF.MD5,ec61d7b9bcbd16111316b33389aa3d9e*%
M02*
