%TF.GenerationSoftware,Altium Limited,Altium Designer,20.0.13 (296)*%
G04 Layer_Physical_Order=1*
G04 Layer_Color=255*
%FSLAX44Y44*%
%MOMM*%
%TF.FileFunction,Copper,L1,Top,Signal*%
%TF.Part,Single*%
G01*
G75*
%TA.AperFunction,SMDPad,CuDef*%
%ADD10R,1.5000X1.4000*%
%ADD11O,1.0000X1.4000*%
%ADD12R,1.3000X0.3000*%
%ADD13R,0.3000X1.3000*%
%ADD14R,0.9500X1.4000*%
%ADD15R,1.4000X1.5000*%
%ADD16R,1.4000X0.9500*%
%ADD17R,1.2000X2.0000*%
%ADD18R,3.3500X2.1500*%
%ADD19R,1.2000X2.1500*%
%TA.AperFunction,Conductor*%
%ADD20C,0.5080*%
%ADD21C,0.2540*%
%ADD22C,0.2032*%
%TA.AperFunction,ComponentPad*%
%ADD23C,0.5500*%
%ADD24C,1.2700*%
%ADD25C,1.2000*%
%ADD26R,1.2000X1.2000*%
%ADD27R,1.2000X1.2000*%
%ADD28R,1.4000X2.5000*%
%ADD29O,1.4000X2.5000*%
%ADD30C,3.0000*%
%ADD31R,3.0000X3.0000*%
%ADD32O,1.5240X2.5000*%
%ADD33O,2.5000X1.2000*%
%ADD34R,2.5000X1.2000*%
%ADD35R,1.4000X1.4000*%
%ADD36C,1.4000*%
%ADD37O,2.5000X1.4000*%
%ADD38R,2.5000X1.4000*%
%TA.AperFunction,ViaPad*%
%ADD39C,0.8890*%
%ADD40C,5.0000*%
G36*
X495300Y2540D02*
X5080D01*
Y70679D01*
X6253Y71165D01*
X30538Y46881D01*
Y38604D01*
X38808D01*
Y52374D01*
X36031D01*
X11505Y76901D01*
Y122786D01*
X12725Y123019D01*
X13458Y121250D01*
X14623Y119731D01*
X16142Y118566D01*
X17910Y117833D01*
X19808Y117584D01*
X32808D01*
X34706Y117833D01*
X36475Y118566D01*
X37993Y119731D01*
X39159Y121250D01*
X39891Y123019D01*
X40141Y124916D01*
X39891Y126814D01*
X39159Y128583D01*
X37993Y130101D01*
X36475Y131267D01*
X34706Y131999D01*
X32808Y132249D01*
X19808D01*
X17910Y131999D01*
X16142Y131267D01*
X14623Y130101D01*
X13458Y128583D01*
X12725Y126814D01*
X11505Y127046D01*
Y148186D01*
X12725Y148419D01*
X13458Y146650D01*
X14623Y145131D01*
X16142Y143966D01*
X17910Y143233D01*
X19808Y142984D01*
X32808D01*
X34706Y143233D01*
X36475Y143966D01*
X37993Y145131D01*
X39159Y146650D01*
X39891Y148419D01*
X40141Y150316D01*
X39891Y152214D01*
X39159Y153983D01*
X37993Y155501D01*
X36475Y156667D01*
X34706Y157399D01*
X32808Y157649D01*
X19808D01*
X17910Y157399D01*
X16142Y156667D01*
X14623Y155501D01*
X13458Y153983D01*
X12725Y152214D01*
X11505Y152446D01*
Y173586D01*
X12725Y173818D01*
X13458Y172050D01*
X14623Y170531D01*
X16142Y169366D01*
X17910Y168633D01*
X19808Y168384D01*
X32808D01*
X34706Y168633D01*
X36475Y169366D01*
X37993Y170531D01*
X39159Y172050D01*
X39891Y173818D01*
X40136Y175678D01*
X40914Y176455D01*
X43180D01*
X44667Y176751D01*
X45673Y177424D01*
X48592D01*
Y173039D01*
X66132D01*
Y177321D01*
X70350D01*
Y172832D01*
X75235D01*
Y167260D01*
X75531Y165774D01*
X76373Y164513D01*
X83172Y157715D01*
X84432Y156873D01*
X85918Y156577D01*
X109543D01*
X109655Y156015D01*
X111041Y153941D01*
X111676Y153516D01*
Y137490D01*
X62731Y88545D01*
X61889Y87284D01*
X61593Y85798D01*
Y50177D01*
X61307Y50058D01*
X59580Y48733D01*
X58254Y47005D01*
X57421Y44993D01*
X57137Y42834D01*
Y31834D01*
X57421Y29675D01*
X58254Y27664D01*
X59580Y25936D01*
X61307Y24610D01*
X63319Y23777D01*
X65478Y23493D01*
X67637Y23777D01*
X67923Y23896D01*
X79325Y12493D01*
X80585Y11651D01*
X82072Y11355D01*
X184984D01*
X186471Y11651D01*
X187731Y12493D01*
X190707Y15469D01*
X191549Y16729D01*
X191845Y18216D01*
Y23890D01*
X199838D01*
Y40430D01*
X183298D01*
Y23890D01*
X184075D01*
Y19825D01*
X183375Y19125D01*
X83681D01*
X73417Y29389D01*
X73535Y29675D01*
X73819Y31834D01*
Y42834D01*
X73535Y44993D01*
X72702Y47005D01*
X71376Y48733D01*
X69648Y50058D01*
X69363Y50177D01*
Y84189D01*
X118308Y133134D01*
X119150Y134394D01*
X119446Y135881D01*
Y153516D01*
X120081Y153941D01*
X121467Y156015D01*
X121579Y156577D01*
X146543D01*
X146655Y156015D01*
X148041Y153941D01*
X150115Y152555D01*
X152561Y152069D01*
X155007Y152555D01*
X157081Y153941D01*
X158467Y156015D01*
X158954Y158462D01*
Y162462D01*
X158467Y164908D01*
X157081Y166982D01*
X155007Y168368D01*
X152561Y168855D01*
X150115Y168368D01*
X148041Y166982D01*
X146655Y164908D01*
X146543Y164346D01*
X121579D01*
X121467Y164908D01*
X120081Y166982D01*
X118007Y168368D01*
X115561Y168855D01*
X113115Y168368D01*
X111041Y166982D01*
X109655Y164908D01*
X109543Y164346D01*
X87527D01*
X83004Y168869D01*
Y172832D01*
X87890D01*
Y189372D01*
X70350D01*
Y185090D01*
X66132D01*
Y189578D01*
X48592D01*
Y185193D01*
X44149D01*
X42662Y184897D01*
X41655Y184225D01*
X39304D01*
X37818Y183929D01*
X36558Y183087D01*
X35812Y182341D01*
X34706Y182799D01*
X32808Y183049D01*
X19808D01*
X17910Y182799D01*
X16142Y182067D01*
X14623Y180901D01*
X13458Y179383D01*
X12725Y177614D01*
X11505Y177846D01*
Y192576D01*
X25038D01*
Y201116D01*
X27578D01*
Y192576D01*
X41348D01*
Y197078D01*
X47322D01*
Y191269D01*
X56092D01*
Y200809D01*
Y210348D01*
X47322D01*
Y204847D01*
X41348D01*
Y209656D01*
X30193D01*
Y220072D01*
X29897Y221558D01*
X29055Y222819D01*
X16585Y235289D01*
Y475911D01*
X18396Y477722D01*
X21582D01*
Y472067D01*
X30352D01*
Y481607D01*
X32892D01*
Y472067D01*
X41662D01*
Y477750D01*
X44442D01*
Y472123D01*
X53212D01*
Y481663D01*
Y491203D01*
X44442D01*
Y485519D01*
X41662D01*
Y491147D01*
X35506D01*
Y498135D01*
X44950Y507578D01*
X45792Y508838D01*
X46087Y510325D01*
Y525532D01*
X49493D01*
Y533802D01*
X42203D01*
X34913D01*
Y525532D01*
X38318D01*
Y511934D01*
X28875Y502491D01*
X28033Y501230D01*
X27737Y499744D01*
Y491147D01*
X21582D01*
Y485491D01*
X16787D01*
X15300Y485196D01*
X14040Y484354D01*
X9953Y480267D01*
X9111Y479007D01*
X8815Y477520D01*
Y233680D01*
X9111Y232193D01*
X9953Y230933D01*
X22424Y218463D01*
Y209656D01*
X11268D01*
Y201541D01*
X10596D01*
X9109Y201245D01*
X7849Y200403D01*
X6253Y198808D01*
X5080Y199294D01*
Y647700D01*
X495300D01*
Y2540D01*
D02*
G37*
%LPC*%
G36*
X436405Y645408D02*
X430385D01*
Y637138D01*
X436405D01*
Y645408D01*
D02*
G37*
G36*
X427845D02*
X421825D01*
Y637138D01*
X427845D01*
Y645408D01*
D02*
G37*
G36*
X49893Y642910D02*
X43873D01*
Y634640D01*
X49893D01*
Y642910D01*
D02*
G37*
G36*
X41333D02*
X35313D01*
Y634640D01*
X41333D01*
Y642910D01*
D02*
G37*
G36*
X416135Y644138D02*
X404095D01*
Y635293D01*
X403939D01*
X402452Y634997D01*
X401192Y634155D01*
X389435Y622397D01*
X388305Y623063D01*
X388563Y625026D01*
Y634786D01*
X388257Y637106D01*
X387362Y639269D01*
X385937Y641126D01*
X384080Y642551D01*
X381917Y643447D01*
X379596Y643752D01*
X377275Y643447D01*
X375113Y642551D01*
X373256Y641126D01*
X371831Y639269D01*
X370935Y637106D01*
X370630Y634786D01*
Y633790D01*
X363163D01*
Y634786D01*
X362857Y637106D01*
X361962Y639269D01*
X360537Y641126D01*
X358680Y642551D01*
X356517Y643447D01*
X354196Y643752D01*
X351875Y643447D01*
X349713Y642551D01*
X347856Y641126D01*
X346431Y639269D01*
X345535Y637106D01*
X345229Y634786D01*
Y633790D01*
X337763D01*
Y634786D01*
X337457Y637106D01*
X336562Y639269D01*
X335137Y641126D01*
X333279Y642551D01*
X331117Y643447D01*
X328796Y643752D01*
X326475Y643447D01*
X324313Y642551D01*
X322456Y641126D01*
X321031Y639269D01*
X320135Y637106D01*
X319830Y634786D01*
Y633790D01*
X312363D01*
Y634786D01*
X312057Y637106D01*
X311162Y639269D01*
X309737Y641126D01*
X307880Y642551D01*
X305717Y643447D01*
X303396Y643752D01*
X301075Y643447D01*
X298913Y642551D01*
X297056Y641126D01*
X295631Y639269D01*
X294735Y637106D01*
X294429Y634786D01*
Y633790D01*
X286963D01*
Y634786D01*
X286657Y637106D01*
X285762Y639269D01*
X284337Y641126D01*
X282479Y642551D01*
X280317Y643447D01*
X277996Y643752D01*
X275675Y643447D01*
X273513Y642551D01*
X271656Y641126D01*
X270231Y639269D01*
X269335Y637106D01*
X269030Y634786D01*
Y633790D01*
X261563D01*
Y634786D01*
X261257Y637106D01*
X260362Y639269D01*
X258937Y641126D01*
X257080Y642551D01*
X254917Y643447D01*
X252596Y643752D01*
X250275Y643447D01*
X248113Y642551D01*
X246256Y641126D01*
X244831Y639269D01*
X243935Y637106D01*
X243629Y634786D01*
Y633790D01*
X236163D01*
Y634786D01*
X235857Y637106D01*
X234962Y639269D01*
X233537Y641126D01*
X231679Y642551D01*
X229517Y643447D01*
X227196Y643752D01*
X224875Y643447D01*
X222713Y642551D01*
X220856Y641126D01*
X219431Y639269D01*
X218535Y637106D01*
X218230Y634786D01*
Y633790D01*
X210763D01*
Y634786D01*
X210457Y637106D01*
X209562Y639269D01*
X208137Y641126D01*
X206280Y642551D01*
X204117Y643447D01*
X201796Y643752D01*
X199475Y643447D01*
X197313Y642551D01*
X195456Y641126D01*
X194031Y639269D01*
X193135Y637106D01*
X192829Y634786D01*
Y633790D01*
X185363D01*
Y634786D01*
X185057Y637106D01*
X184162Y639269D01*
X182737Y641126D01*
X180879Y642551D01*
X178717Y643447D01*
X176396Y643752D01*
X174075Y643447D01*
X171913Y642551D01*
X170056Y641126D01*
X168631Y639269D01*
X167735Y637106D01*
X167430Y634786D01*
Y633790D01*
X159963D01*
Y634786D01*
X159657Y637106D01*
X158762Y639269D01*
X157337Y641126D01*
X155479Y642551D01*
X153317Y643447D01*
X150996Y643752D01*
X148675Y643447D01*
X146513Y642551D01*
X144656Y641126D01*
X143231Y639269D01*
X142335Y637106D01*
X142029Y634786D01*
Y633790D01*
X134563D01*
Y634786D01*
X134257Y637106D01*
X133362Y639269D01*
X131937Y641126D01*
X130079Y642551D01*
X127917Y643447D01*
X125596Y643752D01*
X123275Y643447D01*
X121113Y642551D01*
X119256Y641126D01*
X117831Y639269D01*
X116935Y637106D01*
X116629Y634786D01*
Y633790D01*
X109163D01*
Y634786D01*
X108857Y637106D01*
X107962Y639269D01*
X106537Y641126D01*
X104679Y642551D01*
X102517Y643447D01*
X100196Y643752D01*
X97875Y643447D01*
X95713Y642551D01*
X93856Y641126D01*
X92431Y639269D01*
X91535Y637106D01*
X91229Y634786D01*
Y625026D01*
X91535Y622705D01*
X92431Y620542D01*
X93856Y618685D01*
X95713Y617260D01*
X97875Y616365D01*
X100196Y616059D01*
X102517Y616365D01*
X104679Y617260D01*
X106537Y618685D01*
X107962Y620542D01*
X108857Y622705D01*
X109163Y625026D01*
Y626021D01*
X116629D01*
Y625026D01*
X116935Y622705D01*
X117831Y620542D01*
X119256Y618685D01*
X121113Y617260D01*
X123275Y616365D01*
X125596Y616059D01*
X127917Y616365D01*
X130079Y617260D01*
X131937Y618685D01*
X133362Y620542D01*
X134257Y622705D01*
X134563Y625026D01*
Y626021D01*
X142029D01*
Y625026D01*
X142335Y622705D01*
X143231Y620542D01*
X144656Y618685D01*
X146513Y617260D01*
X148675Y616365D01*
X150996Y616059D01*
X153317Y616365D01*
X155479Y617260D01*
X157337Y618685D01*
X158762Y620542D01*
X159657Y622705D01*
X159963Y625026D01*
Y626021D01*
X167430D01*
Y625026D01*
X167735Y622705D01*
X168631Y620542D01*
X170056Y618685D01*
X171913Y617260D01*
X174075Y616365D01*
X176396Y616059D01*
X178717Y616365D01*
X180879Y617260D01*
X182737Y618685D01*
X184162Y620542D01*
X185057Y622705D01*
X185363Y625026D01*
Y626021D01*
X192829D01*
Y625026D01*
X193135Y622705D01*
X194031Y620542D01*
X195456Y618685D01*
X197313Y617260D01*
X199475Y616365D01*
X201796Y616059D01*
X204117Y616365D01*
X206280Y617260D01*
X208137Y618685D01*
X209562Y620542D01*
X210457Y622705D01*
X210763Y625026D01*
Y626021D01*
X218230D01*
Y625026D01*
X218535Y622705D01*
X219431Y620542D01*
X220856Y618685D01*
X222713Y617260D01*
X224875Y616365D01*
X227196Y616059D01*
X229517Y616365D01*
X231679Y617260D01*
X233537Y618685D01*
X234962Y620542D01*
X235857Y622705D01*
X236163Y625026D01*
Y626021D01*
X243629D01*
Y625026D01*
X243935Y622705D01*
X244831Y620542D01*
X246256Y618685D01*
X248113Y617260D01*
X250275Y616365D01*
X252596Y616059D01*
X254917Y616365D01*
X257080Y617260D01*
X258937Y618685D01*
X260362Y620542D01*
X261257Y622705D01*
X261563Y625026D01*
Y626021D01*
X269030D01*
Y625026D01*
X269335Y622705D01*
X270231Y620542D01*
X271656Y618685D01*
X273513Y617260D01*
X275675Y616365D01*
X277996Y616059D01*
X280317Y616365D01*
X282479Y617260D01*
X284337Y618685D01*
X285762Y620542D01*
X286657Y622705D01*
X286963Y625026D01*
Y626021D01*
X294429D01*
Y625026D01*
X294735Y622705D01*
X295631Y620542D01*
X297056Y618685D01*
X298913Y617260D01*
X301075Y616365D01*
X303396Y616059D01*
X305717Y616365D01*
X307880Y617260D01*
X309737Y618685D01*
X311162Y620542D01*
X312057Y622705D01*
X312363Y625026D01*
Y626021D01*
X319830D01*
Y625026D01*
X320135Y622705D01*
X321031Y620542D01*
X322456Y618685D01*
X324313Y617260D01*
X326475Y616365D01*
X328796Y616059D01*
X331117Y616365D01*
X333279Y617260D01*
X335137Y618685D01*
X336562Y620542D01*
X337457Y622705D01*
X337763Y625026D01*
Y626021D01*
X345229D01*
Y625026D01*
X345535Y622705D01*
X346431Y620542D01*
X347856Y618685D01*
X349713Y617260D01*
X351875Y616365D01*
X354196Y616059D01*
X356517Y616365D01*
X358680Y617260D01*
X360537Y618685D01*
X361962Y620542D01*
X362857Y622705D01*
X363163Y625026D01*
Y626021D01*
X370630D01*
Y625026D01*
X370935Y622705D01*
X371831Y620542D01*
X373256Y618685D01*
X375113Y617260D01*
X377275Y616365D01*
X379596Y616059D01*
X381558Y616317D01*
X382225Y615187D01*
X378490Y611453D01*
X301579D01*
X300092Y611157D01*
X298832Y610315D01*
X255516Y566999D01*
X254917Y567247D01*
X252596Y567552D01*
X250275Y567247D01*
X248113Y566351D01*
X246256Y564926D01*
X244831Y563069D01*
X243935Y560906D01*
X243629Y558586D01*
Y548826D01*
X243935Y546505D01*
X244831Y544342D01*
X246256Y542485D01*
X248113Y541060D01*
X249910Y540316D01*
Y505864D01*
X248640Y505338D01*
X229158Y524821D01*
Y540117D01*
X229517Y540164D01*
X231679Y541060D01*
X233537Y542485D01*
X234962Y544342D01*
X235857Y546505D01*
X236163Y548826D01*
Y558586D01*
X235857Y560906D01*
X234962Y563069D01*
X233537Y564926D01*
X231679Y566351D01*
X229945Y567070D01*
Y586740D01*
X229649Y588227D01*
X228807Y589487D01*
X205947Y612347D01*
X204687Y613189D01*
X203200Y613485D01*
X95589D01*
X76719Y632354D01*
X75459Y633196D01*
X73973Y633492D01*
X67623D01*
Y641640D01*
X55583D01*
Y625100D01*
X67623D01*
Y625723D01*
X72364D01*
X90952Y607135D01*
X90604Y606024D01*
X90483Y605865D01*
X87392D01*
X76698Y616559D01*
X75437Y617401D01*
X73951Y617697D01*
X67601D01*
Y622082D01*
X55561D01*
Y605542D01*
X67601D01*
Y609927D01*
X72342D01*
X83036Y599233D01*
X84296Y598391D01*
X85783Y598095D01*
X177461D01*
X197537Y578019D01*
Y566444D01*
X197313Y566351D01*
X195456Y564926D01*
X194031Y563069D01*
X193135Y560906D01*
X192829Y558586D01*
Y548826D01*
X193135Y546505D01*
X194031Y544342D01*
X195456Y542485D01*
X197313Y541060D01*
X198832Y540431D01*
Y518668D01*
X199029Y517677D01*
X199591Y516837D01*
X239910Y476517D01*
Y459984D01*
X238640Y459458D01*
X179374Y518725D01*
Y540437D01*
X180879Y541060D01*
X182737Y542485D01*
X184162Y544342D01*
X185057Y546505D01*
X185363Y548826D01*
Y558586D01*
X185057Y560906D01*
X184162Y563069D01*
X182737Y564926D01*
X180879Y566351D01*
X180851Y566363D01*
Y574874D01*
X180555Y576361D01*
X179713Y577621D01*
X162767Y594567D01*
X161507Y595409D01*
X160020Y595705D01*
X67403D01*
Y602270D01*
X55363D01*
Y585730D01*
X67403D01*
Y587935D01*
X158411D01*
X173081Y573265D01*
Y566835D01*
X171913Y566351D01*
X170056Y564926D01*
X168631Y563069D01*
X167735Y560906D01*
X167430Y558586D01*
Y548826D01*
X167735Y546505D01*
X168631Y544342D01*
X170056Y542485D01*
X171913Y541060D01*
X174075Y540164D01*
X174194Y540149D01*
Y517652D01*
X174391Y516661D01*
X174953Y515821D01*
X234910Y455863D01*
Y441870D01*
X233640Y441344D01*
X153212Y521773D01*
Y540151D01*
X153317Y540164D01*
X155479Y541060D01*
X157337Y542485D01*
X158762Y544342D01*
X159657Y546505D01*
X159963Y548826D01*
Y558586D01*
X159657Y560906D01*
X158762Y563069D01*
X157337Y564926D01*
X155479Y566351D01*
X153317Y567247D01*
X150996Y567552D01*
X148675Y567247D01*
X148077Y566999D01*
X130669Y584407D01*
X129408Y585249D01*
X127922Y585545D01*
X83566D01*
X82079Y585249D01*
X80819Y584407D01*
X74485Y578073D01*
X67205D01*
Y582458D01*
X55165D01*
Y565918D01*
X67205D01*
Y570303D01*
X76094D01*
X77581Y570599D01*
X78841Y571441D01*
X85175Y577775D01*
X126313D01*
X142583Y561505D01*
X142335Y560906D01*
X142029Y558586D01*
Y548826D01*
X142335Y546505D01*
X143231Y544342D01*
X144656Y542485D01*
X146513Y541060D01*
X148032Y540431D01*
Y520700D01*
X148229Y519709D01*
X148791Y518869D01*
X229910Y437749D01*
Y425534D01*
X228640Y425008D01*
X128186Y525462D01*
Y540276D01*
X130079Y541060D01*
X131937Y542485D01*
X133362Y544342D01*
X134257Y546505D01*
X134563Y548826D01*
Y558586D01*
X134257Y560906D01*
X133362Y563069D01*
X131937Y564926D01*
X130079Y566351D01*
X127917Y567247D01*
X125596Y567552D01*
X123275Y567247D01*
X122677Y566999D01*
X115683Y573993D01*
X114422Y574835D01*
X112936Y575131D01*
X108216D01*
X108016Y575170D01*
X87416D01*
X85929Y574875D01*
X84669Y574033D01*
X69151Y558515D01*
X67167D01*
Y562900D01*
X55127D01*
Y546360D01*
X67167D01*
Y550746D01*
X70760D01*
X72247Y551041D01*
X73507Y551883D01*
X89025Y567401D01*
X95098D01*
X95426Y566131D01*
X93856Y564926D01*
X92431Y563069D01*
X91535Y560906D01*
X91229Y558586D01*
Y557590D01*
X87616D01*
X86129Y557295D01*
X84869Y556452D01*
X68493Y540076D01*
X67223Y540602D01*
Y543342D01*
X55183D01*
Y526802D01*
X67223D01*
Y531188D01*
X68982D01*
X70469Y531483D01*
X71729Y532325D01*
X89225Y549821D01*
X91229D01*
Y548826D01*
X91535Y546505D01*
X92431Y544342D01*
X93856Y542485D01*
X95713Y541060D01*
X97606Y540276D01*
Y530232D01*
X97804Y529241D01*
X98365Y528401D01*
X219854Y406911D01*
Y374770D01*
X219730D01*
Y359230D01*
X280270D01*
Y374770D01*
X280090D01*
Y397453D01*
X375973Y493337D01*
X376535Y494177D01*
X376732Y495168D01*
Y539015D01*
X376813Y539187D01*
X377953Y540075D01*
X379596Y539859D01*
X381917Y540164D01*
X382766Y540516D01*
X387802Y535479D01*
X389062Y534637D01*
X390549Y534341D01*
X404128D01*
Y528544D01*
X416168D01*
Y545084D01*
X404128D01*
Y542111D01*
X392158D01*
X388113Y546156D01*
X388257Y546505D01*
X388563Y548826D01*
Y558586D01*
X388257Y560906D01*
X387362Y563069D01*
X385937Y564926D01*
X384080Y566351D01*
X381917Y567247D01*
X379596Y567552D01*
X377275Y567247D01*
X375113Y566351D01*
X373256Y564926D01*
X371831Y563069D01*
X370935Y560906D01*
X370630Y558586D01*
Y548826D01*
X370935Y546505D01*
X371831Y544342D01*
X372682Y543233D01*
X372311Y542863D01*
X371749Y542022D01*
X371552Y541031D01*
Y496241D01*
X276360Y401048D01*
X275090Y401574D01*
Y405793D01*
X356027Y486731D01*
X356589Y487571D01*
X356786Y488562D01*
Y540276D01*
X358680Y541060D01*
X360537Y542485D01*
X361962Y544342D01*
X362857Y546505D01*
X363163Y548826D01*
Y558586D01*
X362857Y560906D01*
X362609Y561505D01*
X371589Y570484D01*
X384904D01*
X396911Y558477D01*
X398172Y557635D01*
X399658Y557339D01*
X404076D01*
Y548494D01*
X416116D01*
Y565034D01*
X408261D01*
X407886Y565108D01*
X401267D01*
X389260Y577116D01*
X388273Y577775D01*
X388548Y579045D01*
X391837D01*
X395017Y575865D01*
X396277Y575023D01*
X397764Y574727D01*
X404076D01*
Y568494D01*
X416115D01*
Y585034D01*
X404076D01*
Y582497D01*
X399373D01*
X396193Y585677D01*
X395094Y586411D01*
X395098Y587036D01*
X395305Y587681D01*
X404861D01*
X406212Y587950D01*
X407837D01*
X408213Y588025D01*
X416067D01*
Y604565D01*
X404027D01*
Y595500D01*
X403780Y595451D01*
X392557D01*
X392172Y596721D01*
X392891Y597201D01*
X402989Y607299D01*
X404058Y607786D01*
X416097D01*
Y624326D01*
X405324D01*
X405186Y624326D01*
X403994Y625533D01*
X403997Y625972D01*
X405548Y627523D01*
X407905D01*
X408281Y627598D01*
X416135D01*
Y644138D01*
D02*
G37*
G36*
X436405Y634598D02*
X429115D01*
X421825D01*
Y626328D01*
X421825D01*
X421787Y625596D01*
X421787D01*
X421787Y625074D01*
Y617326D01*
X429077D01*
X436367D01*
Y625596D01*
X436367D01*
X436405Y626328D01*
X436405D01*
X436405Y626850D01*
Y634598D01*
D02*
G37*
G36*
X49893Y632100D02*
X42603D01*
X35313D01*
Y623830D01*
X35313D01*
X35291Y623352D01*
X35291D01*
X35291Y622569D01*
Y615082D01*
X42581D01*
X49871D01*
Y623352D01*
X49871D01*
X49893Y623830D01*
X49893D01*
X49893Y624613D01*
Y632100D01*
D02*
G37*
G36*
X49871Y612542D02*
X42581D01*
X35291D01*
Y604272D01*
X35291D01*
X35093Y603540D01*
X35093Y603540D01*
X35093Y603084D01*
Y595270D01*
X42383D01*
X49673D01*
Y603540D01*
X49673D01*
X49871Y604272D01*
X49871Y604272D01*
X49871Y604728D01*
Y612542D01*
D02*
G37*
G36*
X436367Y614786D02*
X429077D01*
X421787D01*
Y606516D01*
X421787D01*
X421757Y605835D01*
X421757D01*
X421757Y605258D01*
Y597565D01*
X429047D01*
X436337D01*
Y605835D01*
X436337D01*
X436367Y606516D01*
X436367D01*
X436367Y607092D01*
Y614786D01*
D02*
G37*
G36*
X49673Y592730D02*
X42383D01*
X35093D01*
Y584460D01*
X35093D01*
X34895Y583728D01*
X34895Y583728D01*
X34895Y583272D01*
Y575458D01*
X42185D01*
X49475D01*
Y583728D01*
X49475D01*
X49673Y584460D01*
X49673Y584460D01*
X49673Y584916D01*
Y592730D01*
D02*
G37*
G36*
X436337Y595025D02*
X429047D01*
X421757D01*
Y587554D01*
X421757Y586755D01*
X421757D01*
X421805Y586304D01*
X421805D01*
Y578034D01*
X429095D01*
X436385D01*
Y585505D01*
X436385Y586304D01*
X436386D01*
X436337Y586755D01*
X436337D01*
Y595025D01*
D02*
G37*
G36*
X436385Y575494D02*
X429095D01*
X421805D01*
Y567224D01*
X421805D01*
X421805Y566304D01*
X421806D01*
Y558034D01*
X429096D01*
X436386D01*
Y566304D01*
X436386D01*
X436386Y567224D01*
X436385D01*
Y575494D01*
D02*
G37*
G36*
X49475Y572918D02*
X42185D01*
X34895D01*
Y564648D01*
X34895D01*
X34857Y564170D01*
X34857D01*
X34857Y563394D01*
Y555900D01*
X42147D01*
X49437D01*
Y564170D01*
X49437D01*
X49475Y564648D01*
X49475D01*
X49475Y565424D01*
Y572918D01*
D02*
G37*
G36*
X436386Y555494D02*
X429096D01*
X421806D01*
Y547602D01*
X421805Y547224D01*
X421805D01*
X421857Y546354D01*
X421858D01*
Y538084D01*
X429148D01*
X436438D01*
Y545975D01*
X436438Y546354D01*
X436438D01*
X436386Y547224D01*
X436386D01*
Y555494D01*
D02*
G37*
G36*
X49437Y553360D02*
X42147D01*
X34857D01*
Y545859D01*
X34857Y545090D01*
X34857D01*
X34913Y544612D01*
X34913D01*
Y536342D01*
X42203D01*
X49493D01*
Y543843D01*
X49493Y544612D01*
X49493D01*
X49437Y545090D01*
X49437D01*
Y553360D01*
D02*
G37*
G36*
X64522Y491203D02*
X55752D01*
Y482933D01*
X64522D01*
Y491203D01*
D02*
G37*
G36*
X418824Y482314D02*
X412804D01*
Y474044D01*
X418824D01*
Y482314D01*
D02*
G37*
G36*
X436438Y535544D02*
X429148D01*
X421858D01*
Y527274D01*
X425263D01*
Y522959D01*
X409241Y506937D01*
X408399Y505677D01*
X408103Y504190D01*
Y493124D01*
X404244D01*
Y487469D01*
X392144D01*
X390658Y487173D01*
X389397Y486331D01*
X365339Y462273D01*
X364497Y461012D01*
X364201Y459526D01*
Y458670D01*
X358546D01*
Y444900D01*
X368086D01*
X377626D01*
Y458670D01*
X374383D01*
X373897Y459844D01*
X393753Y479700D01*
X404244D01*
Y474044D01*
X410264D01*
Y483584D01*
X411534D01*
Y484854D01*
X418824D01*
Y493124D01*
X415873D01*
Y502581D01*
X431894Y518603D01*
X432737Y519863D01*
X433032Y521350D01*
Y527274D01*
X436438D01*
Y535544D01*
D02*
G37*
G36*
X64522Y480393D02*
X55752D01*
Y472123D01*
X64522D01*
Y480393D01*
D02*
G37*
G36*
X63252Y470433D02*
X45712D01*
Y466019D01*
X40392D01*
Y470377D01*
X22852D01*
Y453837D01*
X27737D01*
Y443358D01*
X28033Y441872D01*
X28875Y440611D01*
X31675Y437811D01*
Y435362D01*
X25543D01*
Y417822D01*
X29991D01*
Y412248D01*
X25667D01*
Y394708D01*
X30053D01*
Y360666D01*
X25193Y355807D01*
X24351Y354547D01*
X24055Y353060D01*
Y341892D01*
X20675D01*
Y324352D01*
X25174D01*
Y288552D01*
X20902D01*
Y271012D01*
X24672D01*
Y253610D01*
X23820Y253040D01*
X22557Y251150D01*
X22113Y248920D01*
X22557Y246690D01*
X23820Y244800D01*
X25710Y243537D01*
X27940Y243093D01*
X30170Y243537D01*
X32060Y244800D01*
X33323Y246690D01*
X33767Y248920D01*
X33323Y251150D01*
X32441Y252471D01*
Y271012D01*
X37442D01*
Y288552D01*
X32943D01*
Y324352D01*
X37215D01*
Y341892D01*
X31825D01*
Y351451D01*
X36684Y356310D01*
X37526Y357571D01*
X37822Y359057D01*
Y381745D01*
X38995Y382231D01*
X40433Y380793D01*
X41693Y379951D01*
X43180Y379655D01*
X115231D01*
X149653Y345233D01*
X150913Y344391D01*
X152400Y344095D01*
X168656D01*
X168841Y344132D01*
X191614Y321360D01*
X191088Y320090D01*
X189033D01*
X178838Y330285D01*
X177997Y330846D01*
X177006Y331044D01*
X156479D01*
Y336724D01*
X144439D01*
Y320184D01*
X156479D01*
Y325864D01*
X175934D01*
X185456Y316342D01*
X185463Y316151D01*
X185009Y314992D01*
X184509Y314893D01*
X183669Y314331D01*
X156828Y287491D01*
X155705Y287956D01*
Y287956D01*
X143666D01*
Y271416D01*
X155706D01*
Y281168D01*
X156758D01*
X157749Y281365D01*
X158589Y281926D01*
X158745Y282083D01*
X158840Y282072D01*
X159970Y281512D01*
Y270313D01*
X150730Y261072D01*
X150168Y260232D01*
X149971Y259241D01*
Y220272D01*
X148041Y218982D01*
X146655Y216908D01*
X146543Y216346D01*
X121579D01*
X121467Y216908D01*
X120081Y218982D01*
X118007Y220368D01*
X115561Y220854D01*
X113115Y220368D01*
X111041Y218982D01*
X109655Y216908D01*
X109543Y216346D01*
X105782D01*
X104295Y216051D01*
X103035Y215208D01*
X92313Y204487D01*
X87890D01*
Y208872D01*
X70350D01*
Y192332D01*
X87890D01*
Y196718D01*
X93922D01*
X95409Y197013D01*
X96669Y197856D01*
X107391Y208577D01*
X109543D01*
X109655Y208015D01*
X111041Y205941D01*
X113115Y204555D01*
X115561Y204069D01*
X118007Y204555D01*
X120081Y205941D01*
X121467Y208015D01*
X121579Y208577D01*
X146543D01*
X146655Y208015D01*
X148041Y205941D01*
X150115Y204555D01*
X152561Y204069D01*
X155007Y204555D01*
X157081Y205941D01*
X158467Y208015D01*
X158954Y210462D01*
Y214462D01*
X158467Y216908D01*
X157081Y218982D01*
X155151Y220272D01*
Y258168D01*
X160994Y264011D01*
X162164Y263386D01*
X161813Y261620D01*
X162257Y259390D01*
X163520Y257500D01*
X165410Y256237D01*
X167640Y255793D01*
X169870Y256237D01*
X171760Y257500D01*
X173023Y259390D01*
X173467Y261620D01*
X173023Y263850D01*
X171760Y265740D01*
X171173Y266133D01*
Y276730D01*
X174010Y279568D01*
X174931Y279202D01*
X175210Y278972D01*
Y256587D01*
X173262Y254639D01*
X172720Y254747D01*
X170490Y254303D01*
X168600Y253040D01*
X167337Y251150D01*
X166893Y248920D01*
X167337Y246690D01*
X168600Y244800D01*
X170490Y243537D01*
X172720Y243093D01*
X174950Y243537D01*
X176840Y244800D01*
X178103Y246690D01*
X178547Y248920D01*
X178103Y251150D01*
X177701Y251753D01*
X179631Y253683D01*
X180193Y254523D01*
X180390Y255514D01*
Y278019D01*
X197281Y294910D01*
X200230D01*
Y294730D01*
X215770D01*
Y304910D01*
X236380D01*
X237371Y305107D01*
X238211Y305669D01*
X257275Y324732D01*
X259080Y324373D01*
X261310Y324817D01*
X263200Y326080D01*
X264463Y327970D01*
X264907Y330200D01*
X264463Y332430D01*
X263200Y334320D01*
X261310Y335583D01*
X259080Y336027D01*
X256850Y335583D01*
X254960Y334320D01*
X253697Y332430D01*
X253253Y330200D01*
X253612Y328395D01*
X235307Y310090D01*
X215770D01*
Y323460D01*
X217040D01*
Y325140D01*
X228572D01*
X228715Y324795D01*
X229835Y323336D01*
X231294Y322216D01*
X232993Y321512D01*
X233547Y321439D01*
Y328317D01*
Y335196D01*
X232993Y335123D01*
X231294Y334419D01*
X229835Y333299D01*
X228715Y331840D01*
X228086Y330320D01*
X217040D01*
Y331540D01*
X215770D01*
Y344730D01*
Y355270D01*
X200230D01*
Y350090D01*
X194593D01*
X193090Y351593D01*
Y421640D01*
X192893Y422631D01*
X192331Y423471D01*
X175853Y439949D01*
X175013Y440511D01*
X174022Y440708D01*
X159755D01*
Y446388D01*
X147715D01*
Y429848D01*
X159755D01*
Y435528D01*
X172949D01*
X187910Y420567D01*
Y380355D01*
X186640Y380230D01*
X186543Y380721D01*
X185981Y381561D01*
X176107Y391436D01*
X175267Y391997D01*
X174276Y392194D01*
X163905D01*
Y397874D01*
X151865D01*
Y381334D01*
X163905D01*
Y387015D01*
X173203D01*
X181560Y378657D01*
Y349250D01*
X181757Y348259D01*
X182319Y347419D01*
X189069Y340669D01*
X189909Y340107D01*
X190900Y339910D01*
X200230D01*
Y331540D01*
X198960D01*
Y328770D01*
X208000D01*
Y326230D01*
X198960D01*
Y325090D01*
X195209D01*
X172504Y347795D01*
X172541Y347980D01*
X172245Y349467D01*
X171403Y350727D01*
X170143Y351569D01*
X168656Y351865D01*
X154009D01*
X119587Y386287D01*
X118327Y387129D01*
X116840Y387425D01*
X44789D01*
X42247Y389967D01*
Y399053D01*
X42207Y399252D01*
Y412248D01*
X37760D01*
Y417822D01*
X42083D01*
Y435362D01*
X39445D01*
Y439420D01*
X39149Y440907D01*
X38307Y442167D01*
X35506Y444967D01*
Y453837D01*
X40392D01*
Y458250D01*
X45712D01*
Y453893D01*
X63252D01*
Y458337D01*
X74501D01*
X74620Y458160D01*
X76510Y456897D01*
X78740Y456453D01*
X80970Y456897D01*
X82860Y458160D01*
X84123Y460050D01*
X84567Y462280D01*
X84123Y464510D01*
X82860Y466400D01*
X80970Y467663D01*
X78740Y468107D01*
X76510Y467663D01*
X74620Y466400D01*
X74423Y466106D01*
X63252D01*
Y470433D01*
D02*
G37*
G36*
X418886Y457472D02*
X416727Y457188D01*
X414715Y456354D01*
X412988Y455029D01*
X411662Y453301D01*
X410829Y451289D01*
X410545Y449130D01*
Y438130D01*
X410829Y435971D01*
X411662Y433960D01*
X412988Y432232D01*
X414715Y430906D01*
X416727Y430073D01*
X418886Y429789D01*
X421045Y430073D01*
X423056Y430906D01*
X424784Y432232D01*
X426110Y433960D01*
X426943Y435971D01*
X427227Y438130D01*
Y449130D01*
X426943Y451289D01*
X426110Y453301D01*
X424784Y455029D01*
X423056Y456354D01*
X421045Y457188D01*
X418886Y457472D01*
D02*
G37*
G36*
X393486D02*
X391327Y457188D01*
X389315Y456354D01*
X387588Y455029D01*
X386262Y453301D01*
X385429Y451289D01*
X385145Y449130D01*
Y438130D01*
X385429Y435971D01*
X386262Y433960D01*
X387588Y432232D01*
X389315Y430906D01*
X391327Y430073D01*
X393486Y429789D01*
X395645Y430073D01*
X397657Y430906D01*
X399384Y432232D01*
X400710Y433960D01*
X401543Y435971D01*
X401827Y438130D01*
Y449130D01*
X401543Y451289D01*
X400710Y453301D01*
X399384Y455029D01*
X397657Y456354D01*
X395645Y457188D01*
X393486Y457472D01*
D02*
G37*
G36*
X377626Y442360D02*
X369356D01*
Y428590D01*
X377626D01*
Y442360D01*
D02*
G37*
G36*
X366816D02*
X358546D01*
Y428590D01*
X366816D01*
Y442360D01*
D02*
G37*
G36*
X140755Y446388D02*
X128715D01*
Y429848D01*
X132030D01*
Y425253D01*
X115095Y408317D01*
X107122D01*
X106091Y409006D01*
X105720Y409080D01*
Y410375D01*
X106091Y410449D01*
X107421Y411337D01*
X108309Y412667D01*
X108621Y414235D01*
X108309Y415804D01*
X107421Y417134D01*
X106091Y418022D01*
X104522Y418334D01*
X103735Y418177D01*
X93489Y428423D01*
X92649Y428984D01*
X91658Y429182D01*
X61583D01*
Y435362D01*
X45043D01*
Y417822D01*
X61583D01*
Y424002D01*
X90585D01*
X100441Y414146D01*
X100736Y412667D01*
X101624Y411337D01*
X102954Y410449D01*
X103325Y410375D01*
Y409080D01*
X102954Y409006D01*
X101624Y408118D01*
X100736Y406788D01*
X100640Y406309D01*
X100399Y406068D01*
X61707D01*
Y412248D01*
X45167D01*
Y394708D01*
X61707D01*
Y400888D01*
X101472D01*
X102463Y401085D01*
X102976Y401428D01*
X104522Y401121D01*
X106091Y401433D01*
X107421Y402321D01*
X107966Y403138D01*
X116167D01*
X117158Y403335D01*
X117999Y403896D01*
X136451Y422349D01*
X137013Y423189D01*
X137210Y424180D01*
Y429848D01*
X140755D01*
Y446388D01*
D02*
G37*
G36*
X436554Y491854D02*
X424514D01*
Y475314D01*
X436554D01*
Y479700D01*
X474927D01*
X483795Y470831D01*
Y413755D01*
X460000Y389959D01*
X459157Y388699D01*
X459087Y388347D01*
X450040D01*
X447881Y388063D01*
X445869Y387230D01*
X444141Y385904D01*
X442816Y384176D01*
X442161Y382595D01*
X433346D01*
X432355Y382398D01*
X431515Y381837D01*
X371549Y321871D01*
X370987Y321031D01*
X370790Y320040D01*
Y316033D01*
X359463Y304706D01*
X359267Y304792D01*
X358416Y305455D01*
X358807Y307420D01*
X358363Y309650D01*
X357100Y311540D01*
X355210Y312803D01*
X352980Y313247D01*
X350750Y312803D01*
X348860Y311540D01*
X347891Y310090D01*
X311334D01*
X310808Y311360D01*
X314358Y314910D01*
X319977D01*
X321000Y313380D01*
X322890Y312117D01*
X325120Y311673D01*
X327350Y312117D01*
X329240Y313380D01*
X330503Y315270D01*
X330947Y317500D01*
X330503Y319730D01*
X329240Y321620D01*
X327350Y322883D01*
X325120Y323327D01*
X322890Y322883D01*
X321000Y321620D01*
X319977Y320090D01*
X313286D01*
X312295Y319893D01*
X311454Y319331D01*
X307213Y315090D01*
X299770D01*
Y325070D01*
X307277D01*
X308300Y323540D01*
X310190Y322277D01*
X312420Y321833D01*
X314650Y322277D01*
X316540Y323540D01*
X317803Y325430D01*
X318247Y327660D01*
X317803Y329890D01*
X316540Y331780D01*
X314650Y333043D01*
X312420Y333487D01*
X310190Y333043D01*
X308300Y331780D01*
X307277Y330250D01*
X299770D01*
Y334910D01*
X336427D01*
X337325Y334012D01*
X337517Y333050D01*
X338780Y331160D01*
X340670Y329897D01*
X342900Y329453D01*
X345130Y329897D01*
X347020Y331160D01*
X348283Y333050D01*
X348727Y335280D01*
X348283Y337510D01*
X347020Y339400D01*
X345130Y340663D01*
X342900Y341107D01*
X340670Y340663D01*
X339004Y339550D01*
X338491Y339893D01*
X337500Y340090D01*
X309988D01*
X309462Y341360D01*
X316033Y347930D01*
X322517D01*
X323540Y346400D01*
X325430Y345137D01*
X327660Y344693D01*
X329890Y345137D01*
X331780Y346400D01*
X333043Y348290D01*
X333487Y350520D01*
X333043Y352750D01*
X331780Y354640D01*
X329890Y355903D01*
X327660Y356347D01*
X325430Y355903D01*
X323540Y354640D01*
X322517Y353110D01*
X314960D01*
X313969Y352913D01*
X313129Y352351D01*
X306002Y345224D01*
X304919Y345345D01*
X304459Y346517D01*
X349053Y391110D01*
X388557D01*
X389580Y389580D01*
X391470Y388317D01*
X393700Y387873D01*
X395930Y388317D01*
X397820Y389580D01*
X399083Y391470D01*
X399527Y393700D01*
X399083Y395930D01*
X397820Y397820D01*
X395930Y399083D01*
X393700Y399527D01*
X391470Y399083D01*
X389580Y397820D01*
X388557Y396290D01*
X347980D01*
X346989Y396093D01*
X346149Y395531D01*
X301040Y350423D01*
X299770Y350893D01*
Y355270D01*
X294590D01*
Y372207D01*
X312956Y390574D01*
X312956Y390574D01*
X326193Y403810D01*
X434340D01*
X435331Y404007D01*
X436171Y404569D01*
X446117Y414515D01*
X446679Y415355D01*
X446876Y416346D01*
Y430252D01*
X448456Y430906D01*
X450184Y432232D01*
X451510Y433960D01*
X452343Y435971D01*
X452627Y438130D01*
Y449130D01*
X452343Y451289D01*
X451510Y453301D01*
X450184Y455029D01*
X448456Y456354D01*
X446445Y457188D01*
X444286Y457472D01*
X442127Y457188D01*
X440115Y456354D01*
X438388Y455029D01*
X437062Y453301D01*
X436229Y451289D01*
X435945Y449130D01*
Y438130D01*
X436229Y435971D01*
X437062Y433960D01*
X438388Y432232D01*
X440115Y430906D01*
X441696Y430252D01*
Y417419D01*
X433267Y408990D01*
X325120D01*
X324129Y408793D01*
X323289Y408231D01*
X309294Y394236D01*
X309294Y394236D01*
X290169Y375111D01*
X289607Y374271D01*
X289410Y373280D01*
Y355270D01*
X284230D01*
Y344730D01*
Y334730D01*
Y324730D01*
Y314730D01*
Y304730D01*
Y294730D01*
X299770D01*
Y304910D01*
X347784D01*
X348860Y303300D01*
X350750Y302037D01*
X352980Y301593D01*
X354945Y301984D01*
X355608Y301133D01*
X355694Y300937D01*
X321507Y266750D01*
X275090D01*
Y275230D01*
X280270D01*
Y290770D01*
X219730D01*
Y275230D01*
X219910D01*
Y175529D01*
X94618Y50237D01*
X93037Y50891D01*
X90878Y51176D01*
X88719Y50891D01*
X86707Y50058D01*
X84980Y48733D01*
X83654Y47005D01*
X82821Y44993D01*
X82536Y42834D01*
Y31834D01*
X82821Y29675D01*
X83654Y27664D01*
X84980Y25936D01*
X86707Y24610D01*
X88719Y23777D01*
X90878Y23493D01*
X93037Y23777D01*
X95049Y24610D01*
X96776Y25936D01*
X98102Y27664D01*
X98935Y29675D01*
X99219Y31834D01*
Y42834D01*
X98935Y44993D01*
X98280Y46574D01*
X223640Y171934D01*
X224910Y171408D01*
Y167613D01*
X115009Y57711D01*
X114447Y56871D01*
X114250Y55880D01*
Y50909D01*
X114119Y50891D01*
X112107Y50058D01*
X110380Y48733D01*
X109054Y47005D01*
X108221Y44993D01*
X107936Y42834D01*
Y31834D01*
X108221Y29675D01*
X109054Y27664D01*
X110380Y25936D01*
X112107Y24610D01*
X114119Y23777D01*
X116278Y23493D01*
X118437Y23777D01*
X120449Y24610D01*
X122176Y25936D01*
X123502Y27664D01*
X124335Y29675D01*
X124619Y31834D01*
Y42834D01*
X124335Y44993D01*
X123502Y47005D01*
X122176Y48733D01*
X120449Y50058D01*
X119430Y50480D01*
Y54807D01*
X228483Y163861D01*
X229655Y163400D01*
X229776Y162318D01*
X139847Y72389D01*
X139285Y71549D01*
X139088Y70558D01*
Y50713D01*
X137507Y50058D01*
X135780Y48733D01*
X134454Y47005D01*
X133621Y44993D01*
X133336Y42834D01*
Y31834D01*
X133621Y29675D01*
X134454Y27664D01*
X135780Y25936D01*
X137507Y24610D01*
X139519Y23777D01*
X141678Y23493D01*
X143837Y23777D01*
X145849Y24610D01*
X147576Y25936D01*
X148902Y27664D01*
X149735Y29675D01*
X150019Y31834D01*
Y42834D01*
X149735Y44993D01*
X148902Y47005D01*
X147576Y48733D01*
X145849Y50058D01*
X144268Y50713D01*
Y69485D01*
X234331Y159549D01*
X234893Y160389D01*
X235090Y161380D01*
Y226812D01*
X236360Y227338D01*
X241250Y222447D01*
Y213423D01*
X239720Y212400D01*
X238457Y210510D01*
X238013Y208280D01*
X238457Y206050D01*
X239720Y204160D01*
X241610Y202897D01*
X243840Y202453D01*
X246070Y202897D01*
X247960Y204160D01*
X249223Y206050D01*
X249667Y208280D01*
X249223Y210510D01*
X247960Y212400D01*
X246430Y213423D01*
Y223520D01*
X246233Y224511D01*
X245671Y225351D01*
X240090Y230933D01*
Y275230D01*
X264910D01*
Y260568D01*
X265107Y259577D01*
X265669Y258737D01*
X267157Y257249D01*
X267997Y256687D01*
X268988Y256490D01*
X327660D01*
X328651Y256687D01*
X329491Y257249D01*
X385050Y312808D01*
X386224Y312322D01*
Y310684D01*
X402764D01*
Y322724D01*
X397084D01*
Y327381D01*
X427118Y357416D01*
X442161D01*
X442816Y355835D01*
X444141Y354108D01*
X445869Y352782D01*
X447881Y351949D01*
X450040Y351664D01*
X461040D01*
X463199Y351949D01*
X465210Y352782D01*
X466938Y354108D01*
X468264Y355835D01*
X469097Y357847D01*
X469381Y360006D01*
X469097Y362165D01*
X468264Y364176D01*
X466938Y365904D01*
X465210Y367230D01*
X463199Y368063D01*
X461040Y368347D01*
X450040D01*
X447881Y368063D01*
X445869Y367230D01*
X444141Y365904D01*
X442816Y364176D01*
X442161Y362595D01*
X426046D01*
X425055Y362398D01*
X424215Y361837D01*
X392663Y330285D01*
X392101Y329445D01*
X391904Y328454D01*
Y322724D01*
X386224D01*
Y320090D01*
X386080D01*
X385089Y319893D01*
X384249Y319331D01*
X326722Y261804D01*
X325639Y261926D01*
X325179Y263097D01*
X375211Y313129D01*
X375773Y313969D01*
X375970Y314960D01*
Y318967D01*
X434418Y377416D01*
X442161D01*
X442816Y375835D01*
X444141Y374108D01*
X445869Y372782D01*
X447881Y371949D01*
X450040Y371664D01*
X461040D01*
X463199Y371949D01*
X465210Y372782D01*
X466938Y374108D01*
X468264Y375835D01*
X469097Y377847D01*
X469381Y380006D01*
X469097Y382165D01*
X468264Y384176D01*
X466938Y385904D01*
X466937Y385910D01*
X490427Y409399D01*
X491269Y410660D01*
X491565Y412146D01*
Y472440D01*
X491269Y473927D01*
X490427Y475187D01*
X479283Y486331D01*
X478022Y487173D01*
X476536Y487469D01*
X436554D01*
Y491854D01*
D02*
G37*
G36*
X139700Y412227D02*
X137470Y411783D01*
X135580Y410520D01*
X134317Y408630D01*
X133873Y406400D01*
X134317Y404170D01*
X135580Y402280D01*
X137110Y401257D01*
Y397874D01*
X132865D01*
Y381334D01*
X144905D01*
Y397874D01*
X142290D01*
Y401257D01*
X143820Y402280D01*
X145083Y404170D01*
X145527Y406400D01*
X145083Y408630D01*
X143820Y410520D01*
X141930Y411783D01*
X139700Y412227D01*
D02*
G37*
G36*
X469686Y457472D02*
X467527Y457188D01*
X465515Y456354D01*
X463788Y455029D01*
X462462Y453301D01*
X461629Y451289D01*
X461344Y449130D01*
Y438130D01*
X461629Y435971D01*
X462462Y433960D01*
X463788Y432232D01*
X465515Y430906D01*
X467096Y430252D01*
Y425038D01*
X443427Y401370D01*
X434340D01*
X433349Y401173D01*
X432509Y400611D01*
X407867Y375970D01*
X360743D01*
X359720Y377500D01*
X357830Y378763D01*
X355600Y379207D01*
X353370Y378763D01*
X351480Y377500D01*
X350217Y375610D01*
X349773Y373380D01*
X350217Y371150D01*
X351480Y369260D01*
X353370Y367997D01*
X355600Y367553D01*
X357830Y367997D01*
X359720Y369260D01*
X360743Y370790D01*
X408940D01*
X409931Y370987D01*
X410771Y371549D01*
X435413Y396190D01*
X444500D01*
X445491Y396387D01*
X446331Y396949D01*
X471517Y422135D01*
X472079Y422975D01*
X472276Y423966D01*
Y430252D01*
X473857Y430906D01*
X475584Y432232D01*
X476910Y433960D01*
X477743Y435971D01*
X478027Y438130D01*
Y449130D01*
X477743Y451289D01*
X476910Y453301D01*
X475584Y455029D01*
X473857Y456354D01*
X471845Y457188D01*
X469686Y457472D01*
D02*
G37*
G36*
X461040Y348347D02*
X450040D01*
X447881Y348063D01*
X445869Y347230D01*
X444141Y345904D01*
X442816Y344176D01*
X441982Y342165D01*
X441698Y340006D01*
X441982Y337847D01*
X442816Y335835D01*
X444141Y334108D01*
X445869Y332782D01*
X447881Y331949D01*
X450040Y331664D01*
X461040D01*
X463199Y331949D01*
X465210Y332782D01*
X466938Y334108D01*
X468264Y335835D01*
X469097Y337847D01*
X469381Y340006D01*
X469097Y342165D01*
X468264Y344176D01*
X466938Y345904D01*
X465210Y347230D01*
X463199Y348063D01*
X461040Y348347D01*
D02*
G37*
G36*
X236087Y335196D02*
Y329588D01*
X241695D01*
X241622Y330141D01*
X240918Y331840D01*
X239799Y333299D01*
X238339Y334419D01*
X236640Y335123D01*
X236087Y335196D01*
D02*
G37*
G36*
X469310Y328276D02*
X441770D01*
Y322856D01*
X430958D01*
Y323956D01*
X414418D01*
Y311916D01*
X430958D01*
Y315086D01*
X441770D01*
Y311736D01*
X469310D01*
Y328276D01*
D02*
G37*
G36*
X241695Y327048D02*
X236087D01*
Y321439D01*
X236640Y321512D01*
X238339Y322216D01*
X239799Y323336D01*
X240918Y324795D01*
X241622Y326494D01*
X241695Y327048D01*
D02*
G37*
G36*
X56715Y341892D02*
X40175D01*
Y324352D01*
X56715D01*
Y329238D01*
X85442D01*
X85619Y327897D01*
X86386Y326043D01*
X87608Y324452D01*
X89200Y323230D01*
X91053Y322462D01*
X93042Y322201D01*
X95032Y322462D01*
X96885Y323230D01*
X98477Y324452D01*
X99117Y325285D01*
X125439D01*
Y320184D01*
X137479D01*
Y336724D01*
X125439D01*
Y333055D01*
X99978D01*
X99699Y333729D01*
X98477Y335321D01*
X96885Y336542D01*
X95032Y337310D01*
X93042Y337572D01*
X91053Y337310D01*
X89375Y336615D01*
X89231Y336711D01*
X87745Y337007D01*
X56715D01*
Y341892D01*
D02*
G37*
G36*
X421418Y306226D02*
X413148D01*
Y302205D01*
X404034D01*
Y304994D01*
X395764D01*
Y297704D01*
X394494D01*
Y296434D01*
X384954D01*
Y290414D01*
X392355D01*
Y286525D01*
X391655Y285825D01*
X384284D01*
X383442Y286922D01*
X381983Y288041D01*
X380283Y288745D01*
X379730Y288818D01*
Y281940D01*
Y275062D01*
X380283Y275135D01*
X381983Y275839D01*
X383442Y276958D01*
X384284Y278055D01*
X393264D01*
X394751Y278351D01*
X396011Y279193D01*
X398987Y282169D01*
X399829Y283429D01*
X400125Y284916D01*
Y290414D01*
X404034D01*
Y294436D01*
X413148D01*
Y291646D01*
X420295D01*
Y279144D01*
X420591Y277658D01*
X421433Y276397D01*
X425958Y271873D01*
Y265347D01*
X443978D01*
Y277367D01*
X431451D01*
X428065Y280753D01*
Y291646D01*
X432228D01*
Y297666D01*
X422688D01*
Y298936D01*
X421418D01*
Y306226D01*
D02*
G37*
G36*
X432228D02*
X423958D01*
Y300206D01*
X432228D01*
Y306226D01*
D02*
G37*
G36*
X393224Y304994D02*
X384954D01*
Y298974D01*
X393224D01*
Y304994D01*
D02*
G37*
G36*
X377190Y288818D02*
X376637Y288745D01*
X374937Y288041D01*
X373478Y286922D01*
X372359Y285463D01*
X371655Y283763D01*
X371582Y283210D01*
X377190D01*
Y288818D01*
D02*
G37*
G36*
Y280670D02*
X371582D01*
X371655Y280117D01*
X372359Y278417D01*
X373478Y276958D01*
X374937Y275839D01*
X376637Y275135D01*
X377190Y275062D01*
Y280670D01*
D02*
G37*
G36*
X56942Y288552D02*
X40402D01*
Y271012D01*
X56942D01*
Y275950D01*
X86458D01*
X87608Y274452D01*
X89200Y273230D01*
X91053Y272462D01*
X93042Y272201D01*
X95032Y272462D01*
X96885Y273230D01*
X98477Y274452D01*
X99590Y275901D01*
X124666D01*
Y271416D01*
X136706D01*
Y287956D01*
X124666D01*
Y283671D01*
X99723D01*
X99699Y283729D01*
X98477Y285321D01*
X96885Y286542D01*
X95032Y287310D01*
X93042Y287572D01*
X91053Y287310D01*
X89200Y286542D01*
X87608Y285321D01*
X86386Y283729D01*
X86382Y283719D01*
X56942D01*
Y288552D01*
D02*
G37*
G36*
X464538Y277367D02*
X446518D01*
Y265347D01*
X464538D01*
Y277367D01*
D02*
G37*
G36*
X269240Y234427D02*
X267010Y233983D01*
X265120Y232720D01*
X263857Y230830D01*
X263413Y228600D01*
X263857Y226370D01*
X264259Y225767D01*
X262329Y223837D01*
X261767Y222997D01*
X261570Y222006D01*
Y133153D01*
X215136Y86719D01*
X214575Y85879D01*
X214378Y84888D01*
Y65439D01*
X212797Y64784D01*
X211069Y63458D01*
X209744Y61731D01*
X208911Y59719D01*
X208626Y57560D01*
X208911Y55401D01*
X209744Y53390D01*
X211069Y51662D01*
X212797Y50336D01*
X214809Y49503D01*
X216968Y49219D01*
X219126Y49503D01*
X221138Y50336D01*
X222866Y51662D01*
X224191Y53390D01*
X225025Y55401D01*
X225309Y57560D01*
X225025Y59719D01*
X224191Y61731D01*
X222866Y63458D01*
X221138Y64784D01*
X219557Y65439D01*
Y83815D01*
X239734Y103991D01*
X240904Y103366D01*
X240553Y101600D01*
X240912Y99795D01*
X228076Y86958D01*
X227514Y86118D01*
X227317Y85127D01*
Y44621D01*
X227514Y43630D01*
X228076Y42790D01*
X234965Y35900D01*
X234310Y34319D01*
X234026Y32160D01*
X234310Y30001D01*
X235144Y27990D01*
X236469Y26262D01*
X238197Y24936D01*
X240209Y24103D01*
X242368Y23819D01*
X244527Y24103D01*
X246538Y24936D01*
X248266Y26262D01*
X249592Y27990D01*
X250425Y30001D01*
X250709Y32160D01*
X250425Y34319D01*
X249592Y36331D01*
X248266Y38059D01*
X246538Y39384D01*
X244527Y40217D01*
X242368Y40502D01*
X240209Y40217D01*
X238628Y39563D01*
X232497Y45694D01*
Y84054D01*
X244575Y96132D01*
X246380Y95773D01*
X248610Y96217D01*
X250500Y97480D01*
X251763Y99370D01*
X252207Y101600D01*
X251763Y103830D01*
X250500Y105720D01*
X248610Y106983D01*
X246380Y107427D01*
X244614Y107076D01*
X243989Y108246D01*
X265991Y130249D01*
X266553Y131089D01*
X266750Y132080D01*
Y220933D01*
X268698Y222881D01*
X269240Y222773D01*
X271470Y223217D01*
X273360Y224480D01*
X274623Y226370D01*
X275067Y228600D01*
X274623Y230830D01*
X273360Y232720D01*
X271470Y233983D01*
X269240Y234427D01*
D02*
G37*
G36*
X380036Y232808D02*
X365495D01*
Y218268D01*
X380036D01*
Y232808D01*
D02*
G37*
G36*
X464538Y262807D02*
X445248D01*
X425958D01*
Y250787D01*
X441363D01*
Y217367D01*
X436708D01*
Y205347D01*
X445248D01*
X453788D01*
Y217367D01*
X449132D01*
Y250787D01*
X464538D01*
Y262807D01*
D02*
G37*
G36*
X67402Y210348D02*
X58632D01*
Y202078D01*
X67402D01*
Y210348D01*
D02*
G37*
G36*
Y199538D02*
X58632D01*
Y191269D01*
X67402D01*
Y199538D01*
D02*
G37*
G36*
X424180Y247127D02*
X421950Y246683D01*
X420060Y245420D01*
X418797Y243530D01*
X418353Y241300D01*
X418653Y239793D01*
X418363Y238337D01*
Y216097D01*
X414978D01*
Y207961D01*
X409376D01*
X407889Y207666D01*
X406629Y206824D01*
X401570Y201764D01*
X400727Y200504D01*
X400432Y199017D01*
Y173866D01*
X397046D01*
Y166480D01*
X391643D01*
X351650Y206473D01*
Y219355D01*
X352951Y220353D01*
X354116Y221871D01*
X354848Y223640D01*
X355098Y225538D01*
X354848Y227435D01*
X354116Y229204D01*
X352951Y230723D01*
X351432Y231888D01*
X349663Y232621D01*
X347766Y232870D01*
X345868Y232621D01*
X344099Y231888D01*
X342580Y230723D01*
X341415Y229204D01*
X340683Y227435D01*
X340433Y225538D01*
X340683Y223640D01*
X341415Y221871D01*
X342580Y220353D01*
X343881Y219355D01*
Y204864D01*
Y172934D01*
X344177Y171448D01*
X345019Y170188D01*
X361875Y153331D01*
Y76214D01*
X330061Y44400D01*
X328436Y44614D01*
X326539Y44365D01*
X324770Y43632D01*
X323251Y42467D01*
X322086Y40948D01*
X321353Y39179D01*
X321104Y37282D01*
X321353Y35384D01*
X322086Y33615D01*
X323251Y32097D01*
X324770Y30931D01*
X326539Y30199D01*
X328436Y29949D01*
X330334Y30199D01*
X332103Y30931D01*
X333621Y32097D01*
X334787Y33615D01*
X335519Y35384D01*
X335769Y37282D01*
X335555Y38907D01*
X368507Y71858D01*
X369349Y73119D01*
X369645Y74605D01*
Y154940D01*
X369349Y156427D01*
X368507Y157687D01*
X351650Y174544D01*
Y193827D01*
X352823Y194313D01*
X387287Y159849D01*
X388548Y159007D01*
X390034Y158711D01*
X397046D01*
Y151326D01*
X411586D01*
Y152697D01*
X413310D01*
X423371Y142636D01*
X424631Y141793D01*
X426118Y141498D01*
X429592D01*
Y137112D01*
X447132D01*
Y153652D01*
X429592D01*
Y149267D01*
X427727D01*
X417665Y159328D01*
X416405Y160170D01*
X414919Y160466D01*
X411586D01*
Y173866D01*
X408201D01*
Y197408D01*
X410985Y200192D01*
X414978D01*
Y192057D01*
X429518D01*
Y216097D01*
X426132D01*
Y235861D01*
X426410Y235917D01*
X428300Y237180D01*
X429563Y239070D01*
X430007Y241300D01*
X429563Y243530D01*
X428300Y245420D01*
X426410Y246683D01*
X424180Y247127D01*
D02*
G37*
G36*
X437092Y163612D02*
X428322D01*
Y155342D01*
X437092D01*
Y163612D01*
D02*
G37*
G36*
X467360Y234427D02*
X465130Y233983D01*
X463240Y232720D01*
X461977Y230830D01*
X461533Y228600D01*
X461977Y226370D01*
X463240Y224480D01*
X463919Y224026D01*
Y216097D01*
X460978D01*
Y192057D01*
X464961D01*
Y173739D01*
X462174D01*
Y151199D01*
X476714D01*
Y173739D01*
X472730D01*
Y192057D01*
X475518D01*
Y216097D01*
X471688D01*
Y224791D01*
X472743Y226370D01*
X473187Y228600D01*
X472743Y230830D01*
X471480Y232720D01*
X469590Y233983D01*
X467360Y234427D01*
D02*
G37*
G36*
X453788Y202807D02*
X445248D01*
X436708D01*
Y190787D01*
X440615D01*
Y183642D01*
X436246Y179273D01*
X435404Y178013D01*
X435109Y176527D01*
Y174422D01*
X428322D01*
Y166152D01*
X438362D01*
Y164882D01*
X439632D01*
Y155342D01*
X448402D01*
Y160998D01*
X450075D01*
X450775Y160298D01*
Y131149D01*
X428091Y108465D01*
X427990Y108478D01*
Y102870D01*
X433598D01*
X433585Y102971D01*
X457407Y126793D01*
X458249Y128053D01*
X458545Y129540D01*
Y161907D01*
X458249Y163393D01*
X457407Y164653D01*
X454431Y167629D01*
X453171Y168471D01*
X451684Y168767D01*
X448402D01*
Y174422D01*
X444179D01*
X443653Y175692D01*
X447247Y179286D01*
X448089Y180547D01*
X448385Y182033D01*
Y190787D01*
X453788D01*
Y202807D01*
D02*
G37*
G36*
X425450Y108478D02*
X424897Y108405D01*
X423197Y107701D01*
X421738Y106582D01*
X420619Y105123D01*
X419915Y103423D01*
X419842Y102870D01*
X425450D01*
Y108478D01*
D02*
G37*
G36*
X325000Y155383D02*
X320878Y155059D01*
X316857Y154094D01*
X313037Y152511D01*
X309511Y150351D01*
X306367Y147665D01*
X303681Y144521D01*
X301521Y140995D01*
X299939Y137175D01*
X298973Y133154D01*
X298649Y129032D01*
X298973Y124910D01*
X299939Y120889D01*
X301521Y117069D01*
X303681Y113543D01*
X306367Y110399D01*
X309511Y107713D01*
X313037Y105553D01*
X316857Y103970D01*
X320878Y103005D01*
X325000Y102681D01*
X329122Y103005D01*
X333143Y103970D01*
X336963Y105553D01*
X340489Y107713D01*
X343633Y110399D01*
X346319Y113543D01*
X348479Y117069D01*
X350061Y120889D01*
X351027Y124910D01*
X351351Y129032D01*
X351027Y133154D01*
X350061Y137175D01*
X348479Y140995D01*
X346319Y144521D01*
X343633Y147665D01*
X340489Y150351D01*
X336963Y152511D01*
X333143Y154094D01*
X329122Y155059D01*
X325000Y155383D01*
D02*
G37*
G36*
X433598Y100330D02*
X427990D01*
Y94722D01*
X428543Y94795D01*
X430243Y95499D01*
X431702Y96618D01*
X432821Y98077D01*
X433525Y99777D01*
X433598Y100330D01*
D02*
G37*
G36*
X425450D02*
X419842D01*
X419915Y99777D01*
X420619Y98077D01*
X421738Y96618D01*
X423197Y95499D01*
X424897Y94795D01*
X425450Y94722D01*
Y100330D01*
D02*
G37*
G36*
X314960Y234427D02*
X312730Y233983D01*
X310840Y232720D01*
X309577Y230830D01*
X309133Y228600D01*
X309577Y226370D01*
X310840Y224480D01*
X312370Y223457D01*
Y191573D01*
X287729Y166931D01*
X287167Y166091D01*
X286970Y165100D01*
Y80425D01*
X271507Y64963D01*
X269926Y65617D01*
X267768Y65902D01*
X265609Y65617D01*
X263597Y64784D01*
X261869Y63458D01*
X260544Y61731D01*
X259711Y59719D01*
X259426Y57560D01*
X259711Y55401D01*
X260544Y53390D01*
X261869Y51662D01*
X263597Y50336D01*
X265609Y49503D01*
X267768Y49219D01*
X269926Y49503D01*
X271938Y50336D01*
X273666Y51662D01*
X274991Y53390D01*
X275825Y55401D01*
X276109Y57560D01*
X275825Y59719D01*
X275170Y61300D01*
X291391Y77521D01*
X291953Y78362D01*
X292150Y79353D01*
Y164027D01*
X316791Y188669D01*
X317353Y189509D01*
X317550Y190500D01*
Y223457D01*
X319080Y224480D01*
X320343Y226370D01*
X320787Y228600D01*
X320343Y230830D01*
X319080Y232720D01*
X317190Y233983D01*
X314960Y234427D01*
D02*
G37*
G36*
X336976Y70822D02*
X329706D01*
Y63552D01*
X336976D01*
Y70822D01*
D02*
G37*
G36*
X327166D02*
X319896D01*
Y63552D01*
X327166D01*
Y70822D01*
D02*
G37*
G36*
X254000Y234427D02*
X251770Y233983D01*
X249880Y232720D01*
X248617Y230830D01*
X248173Y228600D01*
X248617Y226370D01*
X249880Y224480D01*
X251410Y223457D01*
Y135693D01*
X202639Y86921D01*
X202077Y86081D01*
X201880Y85090D01*
Y60911D01*
X200610Y60659D01*
X199901Y62371D01*
X198372Y64364D01*
X196379Y65893D01*
X194058Y66855D01*
X192838Y67015D01*
Y57560D01*
Y48105D01*
X194058Y48266D01*
X196379Y49227D01*
X198372Y50756D01*
X199901Y52749D01*
X200610Y54462D01*
X201880Y54209D01*
Y44658D01*
X202077Y43667D01*
X202639Y42827D01*
X209565Y35900D01*
X208911Y34319D01*
X208626Y32160D01*
X208911Y30001D01*
X209744Y27990D01*
X211069Y26262D01*
X212797Y24936D01*
X214809Y24103D01*
X216968Y23819D01*
X219126Y24103D01*
X221138Y24936D01*
X222866Y26262D01*
X224191Y27990D01*
X225025Y30001D01*
X225309Y32160D01*
X225025Y34319D01*
X224191Y36331D01*
X222866Y38059D01*
X221138Y39384D01*
X219126Y40217D01*
X216968Y40502D01*
X214809Y40217D01*
X213228Y39563D01*
X207060Y45731D01*
Y84017D01*
X255831Y132789D01*
X256393Y133629D01*
X256590Y134620D01*
Y223457D01*
X258120Y224480D01*
X259383Y226370D01*
X259827Y228600D01*
X259383Y230830D01*
X258120Y232720D01*
X256230Y233983D01*
X254000Y234427D01*
D02*
G37*
G36*
X190298Y67015D02*
X189077Y66855D01*
X186756Y65893D01*
X184764Y64364D01*
X183235Y62371D01*
X182273Y60051D01*
X182113Y58830D01*
X190298D01*
Y67015D01*
D02*
G37*
G36*
X336976Y61012D02*
X329706D01*
Y53742D01*
X336976D01*
Y61012D01*
D02*
G37*
G36*
X327166D02*
X319896D01*
Y53742D01*
X327166D01*
Y61012D01*
D02*
G37*
G36*
X284480Y234427D02*
X282250Y233983D01*
X280360Y232720D01*
X279097Y230830D01*
X278653Y228600D01*
X279097Y226370D01*
X280360Y224480D01*
X281890Y223457D01*
Y189033D01*
X272489Y179631D01*
X271927Y178791D01*
X271730Y177800D01*
Y110293D01*
X240536Y79099D01*
X239975Y78259D01*
X239778Y77268D01*
Y65439D01*
X238197Y64784D01*
X236469Y63458D01*
X235144Y61731D01*
X234310Y59719D01*
X234026Y57560D01*
X234310Y55401D01*
X235144Y53390D01*
X236469Y51662D01*
X238197Y50336D01*
X240209Y49503D01*
X242368Y49219D01*
X244527Y49503D01*
X246538Y50336D01*
X248266Y51662D01*
X249592Y53390D01*
X250425Y55401D01*
X250709Y57560D01*
X250425Y59719D01*
X249592Y61731D01*
X248266Y63458D01*
X246538Y64784D01*
X244957Y65439D01*
Y76195D01*
X276151Y107389D01*
X276713Y108229D01*
X276910Y109220D01*
Y176727D01*
X286311Y186129D01*
X286873Y186969D01*
X287070Y187960D01*
Y223457D01*
X288600Y224480D01*
X289863Y226370D01*
X290307Y228600D01*
X289863Y230830D01*
X288600Y232720D01*
X286710Y233983D01*
X284480Y234427D01*
D02*
G37*
G36*
X190298Y56290D02*
X182113D01*
X182273Y55070D01*
X183235Y52749D01*
X184764Y50756D01*
X186756Y49227D01*
X189077Y48266D01*
X190298Y48105D01*
Y56290D01*
D02*
G37*
G36*
X49618Y52374D02*
X41348D01*
Y38604D01*
X49618D01*
Y52374D01*
D02*
G37*
G36*
X476714Y145739D02*
X462174D01*
Y123199D01*
X465559D01*
Y100213D01*
X456993Y91647D01*
X456151Y90387D01*
X455855Y88900D01*
Y68121D01*
X441518D01*
Y35581D01*
X474058D01*
Y68121D01*
X463625D01*
Y87291D01*
X472191Y95857D01*
X473033Y97117D01*
X473328Y98604D01*
Y123199D01*
X476714D01*
Y145739D01*
D02*
G37*
G36*
X411586Y145866D02*
X397046D01*
Y123326D01*
X401768D01*
Y67270D01*
X400732Y66956D01*
X397906Y65445D01*
X395428Y63412D01*
X393395Y60934D01*
X391884Y58108D01*
X390954Y55041D01*
X390640Y51851D01*
X390954Y48662D01*
X391884Y45595D01*
X393395Y42769D01*
X395428Y40291D01*
X397906Y38258D01*
X400732Y36747D01*
X403799Y35817D01*
X406988Y35503D01*
X410178Y35817D01*
X413245Y36747D01*
X416071Y38258D01*
X418549Y40291D01*
X420582Y42769D01*
X422093Y45595D01*
X423023Y48662D01*
X423337Y51851D01*
X423023Y55041D01*
X422093Y58108D01*
X420582Y60934D01*
X418549Y63412D01*
X416071Y65445D01*
X413245Y66956D01*
X410178Y67886D01*
X409537Y67949D01*
Y123326D01*
X411586D01*
Y145866D01*
D02*
G37*
G36*
X299720Y234427D02*
X297490Y233983D01*
X295600Y232720D01*
X294337Y230830D01*
X293893Y228600D01*
X294337Y226370D01*
X295600Y224480D01*
X297130Y223457D01*
Y189033D01*
X280109Y172011D01*
X279547Y171171D01*
X279350Y170180D01*
Y105213D01*
X253693Y79555D01*
X253131Y78715D01*
X252934Y77724D01*
Y44404D01*
X253131Y43413D01*
X253693Y42573D01*
X260365Y35900D01*
X259711Y34319D01*
X259426Y32160D01*
X259711Y30001D01*
X260544Y27990D01*
X261869Y26262D01*
X263597Y24936D01*
X265609Y24103D01*
X267768Y23819D01*
X269926Y24103D01*
X271938Y24936D01*
X273666Y26262D01*
X274991Y27990D01*
X275825Y30001D01*
X276109Y32160D01*
X275825Y34319D01*
X274991Y36331D01*
X273666Y38059D01*
X271938Y39384D01*
X269926Y40217D01*
X267768Y40502D01*
X265609Y40217D01*
X264028Y39563D01*
X258114Y45477D01*
Y76651D01*
X283771Y102309D01*
X284333Y103149D01*
X284530Y104140D01*
Y169107D01*
X301551Y186129D01*
X302113Y186969D01*
X302310Y187960D01*
Y223457D01*
X303840Y224480D01*
X305103Y226370D01*
X305547Y228600D01*
X305103Y230830D01*
X303840Y232720D01*
X301950Y233983D01*
X299720Y234427D01*
D02*
G37*
G36*
X49618Y36064D02*
X41348D01*
Y22294D01*
X49618D01*
Y36064D01*
D02*
G37*
G36*
X38808D02*
X30538D01*
Y22294D01*
X38808D01*
Y36064D01*
D02*
G37*
%LPD*%
G36*
X351488Y587036D02*
X351493Y586411D01*
X350394Y585677D01*
X331716Y566999D01*
X331117Y567247D01*
X328796Y567552D01*
X326475Y567247D01*
X324313Y566351D01*
X322456Y564926D01*
X321031Y563069D01*
X320135Y560906D01*
X319830Y558586D01*
Y549288D01*
X318897Y549103D01*
X318057Y548542D01*
X292047Y522531D01*
X291485Y521691D01*
X291288Y520700D01*
Y506025D01*
X266360Y481096D01*
X265090Y481622D01*
Y491805D01*
X284025Y510741D01*
X284587Y511581D01*
X284784Y512572D01*
Y526551D01*
X299182Y540949D01*
X301075Y540164D01*
X303396Y539859D01*
X305717Y540164D01*
X307880Y541060D01*
X309737Y542485D01*
X311162Y544342D01*
X312057Y546505D01*
X312363Y548826D01*
Y558586D01*
X312057Y560906D01*
X311809Y561505D01*
X337986Y587681D01*
X351282D01*
X351488Y587036D01*
D02*
G37*
G36*
X315982Y603524D02*
X316330Y602413D01*
X280916Y566999D01*
X280317Y567247D01*
X277996Y567552D01*
X275675Y567247D01*
X273513Y566351D01*
X271656Y564926D01*
X270231Y563069D01*
X269335Y560906D01*
X269030Y558586D01*
Y548826D01*
X269335Y546505D01*
X269511Y546080D01*
X263853Y540422D01*
X263291Y539581D01*
X263094Y538590D01*
Y512121D01*
X256360Y505386D01*
X255090Y505912D01*
Y540236D01*
X257080Y541060D01*
X258937Y542485D01*
X260362Y544342D01*
X261257Y546505D01*
X261563Y548826D01*
Y558586D01*
X261257Y560906D01*
X261009Y561505D01*
X303188Y603683D01*
X315861D01*
X315982Y603524D01*
D02*
G37*
G36*
X368220Y577775D02*
X367233Y577116D01*
X357116Y566999D01*
X356517Y567247D01*
X354196Y567552D01*
X351875Y567247D01*
X349713Y566351D01*
X347856Y564926D01*
X346431Y563069D01*
X345535Y560906D01*
X345229Y558586D01*
Y548826D01*
X345535Y546505D01*
X346431Y544342D01*
X347856Y542485D01*
X349713Y541060D01*
X351606Y540276D01*
Y515656D01*
X350336Y515506D01*
X350061Y516651D01*
X348479Y520471D01*
X346319Y523997D01*
X343633Y527141D01*
X340489Y529827D01*
X336963Y531987D01*
X333143Y533569D01*
X329122Y534535D01*
X325000Y534859D01*
X320878Y534535D01*
X316857Y533569D01*
X313037Y531987D01*
X309511Y529827D01*
X306367Y527141D01*
X303681Y523997D01*
X301521Y520471D01*
X299939Y516651D01*
X298973Y512630D01*
X298649Y508508D01*
X298973Y504386D01*
X299939Y500365D01*
X301521Y496545D01*
X303681Y493019D01*
X306367Y489875D01*
X309511Y487189D01*
X313037Y485029D01*
X316857Y483447D01*
X320878Y482481D01*
X325000Y482157D01*
X329122Y482481D01*
X333143Y483447D01*
X336963Y485029D01*
X340489Y487189D01*
X343633Y489875D01*
X346319Y493019D01*
X348479Y496545D01*
X350061Y500365D01*
X350336Y501510D01*
X351606Y501360D01*
Y489635D01*
X271530Y409559D01*
X271509Y409555D01*
X271360Y409455D01*
X270090Y410134D01*
Y477501D01*
X295709Y503121D01*
X296271Y503961D01*
X296468Y504952D01*
Y519627D01*
X320416Y543575D01*
X321683Y543492D01*
X322456Y542485D01*
X324313Y541060D01*
X326475Y540164D01*
X328796Y539859D01*
X331117Y540164D01*
X333279Y541060D01*
X335137Y542485D01*
X336562Y544342D01*
X337457Y546505D01*
X337763Y548826D01*
Y558586D01*
X337457Y560906D01*
X337209Y561505D01*
X354750Y579045D01*
X367945D01*
X368220Y577775D01*
D02*
G37*
G36*
X334349Y594793D02*
X333630Y594313D01*
X306316Y566999D01*
X305717Y567247D01*
X303396Y567552D01*
X301075Y567247D01*
X298913Y566351D01*
X297056Y564926D01*
X295631Y563069D01*
X294735Y560906D01*
X294429Y558586D01*
Y548826D01*
X294735Y546505D01*
X295519Y544611D01*
X280363Y529455D01*
X279801Y528615D01*
X279604Y527623D01*
Y513645D01*
X261360Y495400D01*
X260090Y495926D01*
Y501791D01*
X267515Y509217D01*
X268077Y510057D01*
X268274Y511048D01*
Y537518D01*
X272553Y541797D01*
X273513Y541060D01*
X275675Y540164D01*
X277996Y539859D01*
X280317Y540164D01*
X282479Y541060D01*
X284337Y542485D01*
X285762Y544342D01*
X286657Y546505D01*
X286963Y548826D01*
Y558586D01*
X286657Y560906D01*
X286409Y561505D01*
X320968Y596063D01*
X333964D01*
X334349Y594793D01*
D02*
G37*
G36*
X222175Y585131D02*
Y565939D01*
X220856Y564926D01*
X219431Y563069D01*
X218535Y560906D01*
X218230Y558586D01*
Y548826D01*
X218535Y546505D01*
X219431Y544342D01*
X220856Y542485D01*
X222713Y541060D01*
X223978Y540536D01*
Y523748D01*
X224175Y522757D01*
X224737Y521917D01*
X244910Y501743D01*
Y480638D01*
X243640Y480112D01*
X204012Y519741D01*
Y540151D01*
X204117Y540164D01*
X206280Y541060D01*
X208137Y542485D01*
X209562Y544342D01*
X210457Y546505D01*
X210763Y548826D01*
Y558586D01*
X210457Y560906D01*
X209562Y563069D01*
X208137Y564926D01*
X206280Y566351D01*
X205307Y566754D01*
Y579628D01*
X205011Y581115D01*
X204169Y582375D01*
X182098Y604445D01*
X182446Y605556D01*
X182568Y605715D01*
X201591D01*
X222175Y585131D01*
D02*
G37*
G36*
X108056Y567361D02*
X111327D01*
X117183Y561505D01*
X116935Y560906D01*
X116629Y558586D01*
Y548826D01*
X116935Y546505D01*
X117831Y544342D01*
X119256Y542485D01*
X121113Y541060D01*
X123006Y540276D01*
Y524390D01*
X123204Y523399D01*
X123765Y522559D01*
X224910Y421413D01*
Y410976D01*
X223640Y410450D01*
X102786Y531305D01*
Y540276D01*
X104679Y541060D01*
X106537Y542485D01*
X107962Y544342D01*
X108857Y546505D01*
X109163Y548826D01*
Y558586D01*
X108857Y560906D01*
X107962Y563069D01*
X106537Y564926D01*
X104966Y566131D01*
X105295Y567401D01*
X107857D01*
X108056Y567361D01*
D02*
G37*
D10*
X79120Y181102D02*
D03*
Y200602D02*
D03*
X31622Y481607D02*
D03*
Y462107D02*
D03*
X54482Y462163D02*
D03*
Y481663D02*
D03*
X57362Y181308D02*
D03*
Y200809D02*
D03*
X438362Y145382D02*
D03*
Y164882D02*
D03*
D11*
X152561Y212462D02*
D03*
X115561D02*
D03*
X152561Y160462D02*
D03*
X115561D02*
D03*
D12*
X208000Y352500D02*
D03*
Y347500D02*
D03*
Y342500D02*
D03*
Y337500D02*
D03*
Y332500D02*
D03*
Y327500D02*
D03*
Y322500D02*
D03*
Y317500D02*
D03*
Y312500D02*
D03*
Y307500D02*
D03*
Y302500D02*
D03*
Y297500D02*
D03*
X292000D02*
D03*
Y302500D02*
D03*
Y307500D02*
D03*
Y312500D02*
D03*
Y317500D02*
D03*
Y322500D02*
D03*
Y327500D02*
D03*
Y332500D02*
D03*
Y337500D02*
D03*
Y342500D02*
D03*
Y347500D02*
D03*
Y352500D02*
D03*
D13*
X222500Y283000D02*
D03*
X227500D02*
D03*
X232500D02*
D03*
X237500D02*
D03*
X242500D02*
D03*
X247500D02*
D03*
X252500D02*
D03*
X257500D02*
D03*
X262500D02*
D03*
X267500D02*
D03*
X272500D02*
D03*
X277500D02*
D03*
Y367000D02*
D03*
X272500D02*
D03*
X267500D02*
D03*
X262500D02*
D03*
X257500D02*
D03*
X252500D02*
D03*
X247500D02*
D03*
X242500D02*
D03*
X237500D02*
D03*
X232500D02*
D03*
X227500D02*
D03*
X222500D02*
D03*
D14*
X138885Y389604D02*
D03*
X157885D02*
D03*
X134735Y438118D02*
D03*
X153735D02*
D03*
X149686Y279686D02*
D03*
X130686D02*
D03*
X411534Y483584D02*
D03*
X430534D02*
D03*
X61203Y535072D02*
D03*
X42203D02*
D03*
X61147Y554630D02*
D03*
X42147D02*
D03*
X61185Y574188D02*
D03*
X42185D02*
D03*
X61383Y594000D02*
D03*
X42383D02*
D03*
X61581Y613812D02*
D03*
X42581D02*
D03*
X61603Y633370D02*
D03*
X42603D02*
D03*
X410115Y635868D02*
D03*
X429115D02*
D03*
X410078Y616056D02*
D03*
X429077D02*
D03*
X410148Y536814D02*
D03*
X429148D02*
D03*
X410047Y596295D02*
D03*
X429047D02*
D03*
X410095Y576764D02*
D03*
X429095D02*
D03*
X410096Y556764D02*
D03*
X429096D02*
D03*
X150459Y328454D02*
D03*
X131459D02*
D03*
D15*
X53313Y426592D02*
D03*
X33813D02*
D03*
X53437Y403478D02*
D03*
X33937D02*
D03*
X29172Y279782D02*
D03*
X48672D02*
D03*
X28945Y333122D02*
D03*
X48445D02*
D03*
D16*
X422688Y298936D02*
D03*
Y317936D02*
D03*
X394494Y297704D02*
D03*
Y316704D02*
D03*
D17*
X469444Y162469D02*
D03*
Y134469D02*
D03*
X404316Y134596D02*
D03*
Y162596D02*
D03*
D18*
X445248Y264077D02*
D03*
D19*
X468248Y204077D02*
D03*
X445248D02*
D03*
X422248D02*
D03*
D20*
X487680Y412146D02*
Y472440D01*
X476536Y483584D02*
X487680Y472440D01*
X462746Y387212D02*
X487680Y412146D01*
X10596Y197656D02*
X22848D01*
X7620Y75292D02*
X40078Y42834D01*
X7620Y194681D02*
X10596Y197656D01*
X7620Y75292D02*
Y194681D01*
X455540Y380006D02*
X458626D01*
X462746Y384126D01*
Y387212D01*
X430534Y483584D02*
X476536D01*
X394494Y297704D02*
X395110Y298320D01*
X422072D01*
X422688Y298936D01*
X438362Y164882D02*
X438993Y165514D01*
Y176527D01*
X444500Y182033D01*
Y203329D01*
X445248Y204077D01*
X378460Y281940D02*
X393264D01*
X394494Y297704D02*
X396240Y295958D01*
Y284916D02*
Y295958D01*
X393264Y281940D02*
X396240Y284916D01*
X368086Y459526D02*
X392144Y483584D01*
X368086Y443630D02*
Y459526D01*
X392144Y483584D02*
X411534D01*
X422248Y204077D02*
Y238337D01*
X347766Y204864D02*
Y225538D01*
Y172934D02*
Y204864D01*
X390034Y162596D01*
X328436Y37282D02*
X365760Y74605D01*
Y154940D01*
X347766Y172934D02*
X365760Y154940D01*
X152400Y347980D02*
X168656D01*
X43180Y383540D02*
X116840D01*
X152400Y347980D01*
X38362Y388358D02*
Y399053D01*
Y388358D02*
X43180Y383540D01*
X33937Y403478D02*
X38362Y399053D01*
X467804Y204520D02*
X468248Y204077D01*
X467804Y204520D02*
Y228156D01*
X467360Y228600D02*
X467804Y228156D01*
X390034Y162596D02*
X404316D01*
X409376Y204077D02*
X422248D01*
X404316Y162596D02*
Y199017D01*
X409376Y204077D01*
X426720Y101600D02*
X454660Y129540D01*
X438362Y164882D02*
X451684D01*
X454660Y129540D02*
Y161907D01*
X451684Y164882D02*
X454660Y161907D01*
X404316Y160042D02*
Y162596D01*
Y160042D02*
X407776Y156581D01*
X414919D02*
X426118Y145382D01*
X407776Y156581D02*
X414919D01*
X426118Y145382D02*
X438362D01*
X405652Y53187D02*
X406988Y51851D01*
X405652Y53187D02*
Y133260D01*
X404316Y134596D02*
X405652Y133260D01*
X457788Y51851D02*
X459740Y53803D01*
Y88900D01*
X469444Y98604D02*
Y134469D01*
X459740Y88900D02*
X469444Y98604D01*
X468248Y204077D02*
X468846Y203479D01*
Y163067D02*
Y203479D01*
Y163067D02*
X469444Y162469D01*
X445248Y204077D02*
Y264077D01*
X424180Y279144D02*
Y297444D01*
X439248Y264077D02*
X445248D01*
X424180Y279144D02*
X439248Y264077D01*
X422688Y298936D02*
X424180Y297444D01*
X422688Y317936D02*
X423722Y318971D01*
X454505D01*
X455540Y320006D01*
X115561Y212462D02*
X152561D01*
X105782D02*
X115561D01*
X93922Y200602D02*
X105782Y212462D01*
X79120Y200602D02*
X93922D01*
X93042Y279886D02*
X93143Y279786D01*
X130585D01*
X130686Y279686D01*
X93042Y329886D02*
X93759Y329170D01*
X130743D01*
X131459Y328454D01*
X48672Y279782D02*
X48724Y279834D01*
X92991D01*
X93042Y279886D01*
X48445Y333122D02*
X87745D01*
X90981Y329886D01*
X93042D01*
X82072Y15240D02*
X184984D01*
X187960Y28553D02*
X191568Y32160D01*
X187960Y18216D02*
Y28553D01*
X184984Y15240D02*
X187960Y18216D01*
X65478Y31834D02*
Y37334D01*
Y31834D02*
X82072Y15240D01*
X115561Y160462D02*
X152561D01*
X65478Y37334D02*
Y85798D01*
X115561Y135881D02*
Y160462D01*
X65478Y85798D02*
X115561Y135881D01*
X85918Y160462D02*
X115561D01*
X79120Y167260D02*
Y181102D01*
Y167260D02*
X85918Y160462D01*
X57362Y181308D02*
X57465Y181206D01*
X79017D01*
X79120Y181102D01*
X44149Y181308D02*
X57362D01*
X43180Y180340D02*
X44149Y181308D01*
X26308Y175716D02*
X34681D01*
X39304Y180340D01*
X43180D01*
X28556Y279166D02*
X29172Y279782D01*
X28556Y249536D02*
Y279166D01*
X27940Y248920D02*
X28556Y249536D01*
X28945Y333122D02*
X29058Y333008D01*
Y279896D02*
Y333008D01*
Y279896D02*
X29172Y279782D01*
X27940Y334127D02*
X28945Y333122D01*
X27940Y334127D02*
Y353060D01*
X33937Y359057D01*
Y403478D01*
X33813Y426592D02*
X33875Y426530D01*
Y403540D02*
Y426530D01*
Y403540D02*
X33937Y403478D01*
X33813Y426592D02*
X35560Y428338D01*
Y439420D01*
X31622Y443358D02*
X35560Y439420D01*
X31622Y443358D02*
Y462107D01*
X54454Y462135D02*
X54482Y462163D01*
X31650Y462135D02*
X54454D01*
X31622Y462107D02*
X31650Y462135D01*
X22848Y197656D02*
X26308Y201116D01*
X40078Y37334D02*
Y42834D01*
X26308Y201116D02*
X26462Y200962D01*
X57208D01*
X57362Y200809D01*
X12700Y233680D02*
Y477520D01*
X26308Y201116D02*
Y220072D01*
X12700Y233680D02*
X26308Y220072D01*
X12700Y477520D02*
X16787Y481607D01*
X31622D01*
X54454Y481635D02*
X54482Y481663D01*
X31650Y481635D02*
X54454D01*
X31622Y481607D02*
X31650Y481635D01*
X31622Y481607D02*
Y499744D01*
X42147Y535128D02*
X42175Y535156D01*
X42203Y510325D02*
Y535072D01*
X31622Y499744D02*
X42203Y510325D01*
X42147Y554630D02*
X42175Y554602D01*
Y535156D02*
Y554602D01*
X42166Y574169D02*
X42185Y574188D01*
X42166Y554649D02*
Y574169D01*
X42147Y554630D02*
X42166Y554649D01*
X42284Y593901D02*
X42383Y594000D01*
X42284Y574287D02*
Y593901D01*
X42185Y574188D02*
X42284Y574287D01*
X42482Y613713D02*
X42581Y613812D01*
X42482Y594099D02*
Y613713D01*
X42383Y594000D02*
X42482Y594099D01*
X42592Y633359D02*
X42603Y633370D01*
X42592Y613823D02*
Y633359D01*
X54482Y462163D02*
X54540Y462221D01*
X78681D01*
X78740Y462280D01*
X100196Y629906D02*
X125596D01*
X150996D01*
X176396D01*
X201796D01*
X227196D01*
X252596D01*
X277996D01*
X303396D01*
X328796D01*
X354196D01*
X379596D01*
X226060Y553586D02*
X226568Y553078D01*
X93980Y609600D02*
X203200D01*
X226060Y553586D02*
Y586740D01*
X203200Y609600D02*
X226060Y586740D01*
X63813Y629607D02*
X73973D01*
X93980Y609600D01*
X61603Y631817D02*
Y633370D01*
Y631817D02*
X63813Y629607D01*
X76094Y574188D02*
X83566Y581660D01*
X127922D01*
X150996Y558586D01*
X61383Y594000D02*
X63563Y591820D01*
X160020D02*
X176966Y574874D01*
X63563Y591820D02*
X160020D01*
X85783Y601980D02*
X179070D01*
X73951Y613812D02*
X85783Y601980D01*
X179070D02*
X201422Y579628D01*
Y553331D02*
Y579628D01*
X61581Y613812D02*
X73951D01*
X176022Y554080D02*
X176966Y555024D01*
Y574874D01*
X150996Y553706D02*
Y558586D01*
X61185Y574188D02*
X76094D01*
X125596Y553706D02*
Y558586D01*
X112936Y571246D02*
X125596Y558586D01*
X108056Y571246D02*
X112936D01*
X70760Y554630D02*
X87416Y571286D01*
X108016D01*
X108056Y571246D01*
X61147Y554630D02*
X70760D01*
X61203Y535072D02*
X68982D01*
X87616Y553706D02*
X100196D01*
X68982Y535072D02*
X87616Y553706D01*
X380099Y607568D02*
X403939Y631408D01*
X407905D01*
X301579Y607568D02*
X380099D01*
X319359Y599948D02*
X390144D01*
X410078Y613996D02*
Y616056D01*
X407868Y611786D02*
X410078Y613996D01*
X390144Y599948D02*
X401982Y611786D01*
X407868D01*
X410115Y633618D02*
Y635868D01*
X407905Y631408D02*
X410115Y633618D01*
X252596Y553706D02*
Y558586D01*
X301579Y607568D01*
X277996Y558586D02*
X319359Y599948D01*
X328796Y558586D02*
X353140Y582930D01*
X393446D01*
X397764Y578612D01*
X303396Y558586D02*
X336376Y591566D01*
X410047Y594045D02*
Y596295D01*
X407837Y591835D02*
X410047Y594045D01*
X405130Y591835D02*
X407837D01*
X404861Y591566D02*
X405130Y591835D01*
X336376Y591566D02*
X404861D01*
X277996Y553706D02*
Y558586D01*
X303396Y553706D02*
Y558586D01*
X328796Y553706D02*
Y558586D01*
X409372Y578612D02*
X410095Y577889D01*
X397764Y578612D02*
X409372D01*
X369980Y574369D02*
X386513D01*
X399658Y561224D01*
X354196Y558586D02*
X369980Y574369D01*
X410096Y556764D02*
Y559014D01*
X407886Y561224D02*
X410096Y559014D01*
X399658Y561224D02*
X407886D01*
X354196Y553706D02*
Y558586D01*
X408735Y538226D02*
X410148Y536814D01*
X379596Y549179D02*
Y553706D01*
Y549179D02*
X390549Y538226D01*
X408735D01*
X411534Y483584D02*
X411988Y484038D01*
Y504190D01*
X429148Y521350D02*
Y536814D01*
X411988Y504190D02*
X429148Y521350D01*
X429096Y556764D02*
X429122Y556738D01*
Y536840D02*
Y556738D01*
Y536840D02*
X429148Y536814D01*
X429095Y576764D02*
X429095Y576764D01*
Y556764D02*
Y576764D01*
Y556764D02*
X429096Y556764D01*
X429047Y596295D02*
X429071Y596270D01*
Y576788D02*
Y596270D01*
Y576788D02*
X429095Y576764D01*
X429062Y616041D02*
X429077Y616056D01*
X429062Y596310D02*
Y616041D01*
X429047Y596295D02*
X429062Y596310D01*
X429096Y635849D02*
X429115Y635868D01*
X429096Y616075D02*
Y635849D01*
X429077Y616056D02*
X429096Y616075D01*
D21*
X292000Y373280D02*
X311125Y392405D01*
X292000Y352500D02*
Y373280D01*
X325120Y406400D02*
X434340D01*
X311125Y392405D02*
Y392405D01*
X325120Y406400D01*
X355600Y373380D02*
X408940D01*
X444500Y398780D02*
X469686Y423966D01*
X434340Y398780D02*
X444500D01*
X408940Y373380D02*
X434340Y398780D01*
X469686Y423966D02*
Y443630D01*
X208000Y307500D02*
X236380D01*
X259080Y330200D01*
X208000Y327500D02*
X208230Y327730D01*
X234229D01*
X234817Y328317D01*
X322580Y264160D02*
X373380Y314960D01*
Y320040D01*
X273988Y264160D02*
X322580D01*
X373380Y320040D02*
X433346Y380006D01*
X347980Y393700D02*
X393700D01*
X301780Y347500D02*
X347980Y393700D01*
X292000Y347500D02*
X301780D01*
X434340Y406400D02*
X444286Y416346D01*
Y443630D01*
X289560Y79353D02*
Y165100D01*
X314960Y190500D02*
Y228600D01*
X289560Y165100D02*
X314960Y190500D01*
X281940Y104140D02*
Y170180D01*
X299720Y187960D02*
Y228600D01*
X281940Y170180D02*
X299720Y187960D01*
X274320Y109220D02*
Y177800D01*
X284480Y187960D01*
Y228600D01*
X243840Y208280D02*
Y223520D01*
X237500Y229860D02*
X243840Y223520D01*
X254000Y134620D02*
Y228600D01*
X204470Y85090D02*
X254000Y134620D01*
X150459Y328454D02*
X177006D01*
X187960Y317500D02*
X208000D01*
X177006Y328454D02*
X187960Y317500D01*
X168656Y347980D02*
X194136Y322500D01*
X208000D01*
X272500Y265648D02*
Y283000D01*
Y265648D02*
X273988Y264160D01*
X267500Y260568D02*
Y283000D01*
X327660Y259080D02*
X386080Y317500D01*
X268988Y259080D02*
X327660D01*
X267500Y260568D02*
X268988Y259080D01*
X393698Y317500D02*
X394494Y316704D01*
X386080Y317500D02*
X393698D01*
X292000Y307500D02*
X352900D01*
X352980Y307420D01*
X426046Y360006D02*
X455540D01*
X394494Y328454D02*
X426046Y360006D01*
X394494Y316704D02*
Y328454D01*
X433346Y380006D02*
X455540D01*
X292160Y327660D02*
X312420D01*
X292000Y327500D02*
X292160Y327660D01*
X313286Y317500D02*
X325120D01*
X339720Y335280D02*
X342900D01*
X337500Y337500D02*
X339720Y335280D01*
X292000Y337500D02*
X337500D01*
X306940Y342500D02*
X314960Y350520D01*
X327660D01*
X204470Y44658D02*
Y85090D01*
Y44658D02*
X216968Y32160D01*
X227500Y166540D02*
Y283000D01*
X116840Y37896D02*
Y55880D01*
X116278Y37334D02*
X116840Y37896D01*
Y55880D02*
X227500Y166540D01*
X242368Y57560D02*
Y77268D01*
X274320Y109220D01*
X272500Y367000D02*
Y407162D01*
X272796D02*
X354196Y488562D01*
Y553706D01*
X277500Y398526D02*
X374142Y495168D01*
Y541031D01*
X379596Y546485D01*
X252500Y367000D02*
Y553610D01*
X262500Y367000D02*
Y492878D01*
X282194Y527623D02*
X303396Y548826D01*
X262500Y492878D02*
X282194Y512572D01*
Y527623D01*
X237500Y367000D02*
Y456936D01*
X176784Y517652D02*
Y553318D01*
Y517652D02*
X237500Y456936D01*
X100196Y530232D02*
Y553706D01*
X222444Y367000D02*
Y407984D01*
X100196Y530232D02*
X222444Y407984D01*
X141678Y37334D02*
Y70558D01*
X265684Y511048D02*
Y538590D01*
X277996Y550903D01*
X185500Y312500D02*
X208000D01*
X149686Y279686D02*
Y280278D01*
X153166Y283758D01*
X156758D01*
X185500Y312500D01*
X153735Y438118D02*
X174022D01*
X222500Y174457D02*
Y283000D01*
X90878Y42834D02*
X222500Y174457D01*
X162560Y281940D02*
X188120Y307500D01*
X152561Y212462D02*
Y259241D01*
X162560Y269240D01*
Y281940D01*
X227500Y367000D02*
Y422486D01*
X125596Y524390D02*
X227500Y422486D01*
X125596Y524390D02*
Y553706D01*
X267500Y478574D02*
X293878Y504952D01*
Y520700D01*
X319888Y546711D01*
X150622Y520700D02*
X232500Y438822D01*
X150622Y520700D02*
Y553331D01*
X184150Y349250D02*
Y379730D01*
X157885Y389604D02*
X174276D01*
X184150Y379730D01*
X247500Y367000D02*
Y502816D01*
X226568Y523748D02*
Y553078D01*
Y523748D02*
X247500Y502816D01*
X201422Y518668D02*
X242500Y477590D01*
X201422Y518668D02*
Y553331D01*
X277500Y367000D02*
Y398526D01*
X242500Y367000D02*
Y477590D01*
X267500Y367000D02*
Y478574D01*
X141678Y70558D02*
X232500Y161380D01*
Y283000D01*
X257500Y367000D02*
Y502864D01*
X265684Y511048D01*
X232500Y367000D02*
Y438822D01*
X184150Y349250D02*
X190900Y342500D01*
X208000D01*
X174022Y438118D02*
X190500Y421640D01*
Y350520D02*
Y421640D01*
Y350520D02*
X193520Y347500D01*
X208000D01*
X188120Y307500D02*
X208000D01*
X90878Y37334D02*
Y42834D01*
X292000Y312500D02*
X308286D01*
X313286Y317500D01*
X269240Y227086D02*
Y228600D01*
X264160Y222006D02*
X269240Y227086D01*
X264160Y132080D02*
Y222006D01*
X216968Y57560D02*
Y84888D01*
X264160Y132080D01*
X237500Y229860D02*
Y283000D01*
X229907Y85127D02*
X246380Y101600D01*
X229907Y44621D02*
Y85127D01*
Y44621D02*
X242368Y32160D01*
X267768Y57560D02*
X289560Y79353D01*
X255524Y77724D02*
X281940Y104140D01*
X292000Y342500D02*
X306940D01*
X255524Y44404D02*
Y77724D01*
Y44404D02*
X267768Y32160D01*
X177800Y255514D02*
Y279092D01*
X196208Y297500D01*
X168583Y277803D02*
X193280Y302500D01*
X168583Y262563D02*
Y277803D01*
X193280Y302500D02*
X208000D01*
X196208Y297500D02*
X208000D01*
X172720Y248920D02*
Y250434D01*
X177800Y255514D01*
X167640Y261620D02*
X168583Y262563D01*
X138885Y389604D02*
X139700Y390420D01*
Y406400D01*
X134620Y438004D02*
X134735Y438118D01*
X134620Y424180D02*
Y438004D01*
X104522Y405727D02*
X116167D01*
X134620Y424180D01*
X53437Y403478D02*
X101472D01*
X103721Y405727D01*
X104522D01*
X53313Y426592D02*
X91658D01*
X104522Y413727D01*
D22*
X272500Y407162D02*
X272796D01*
X379596Y546485D02*
Y549179D01*
X176022Y554080D02*
X176396Y553706D01*
X176784Y553318D01*
X277996Y550903D02*
Y553706D01*
X328796Y552812D02*
Y553706D01*
X319888Y546711D02*
X322695D01*
X328796Y552812D01*
X150622Y553331D02*
X150996Y553706D01*
X303396Y548826D02*
Y553706D01*
X252500Y553610D02*
X252596Y553706D01*
X42592Y613823D02*
X42603Y613834D01*
X42581Y613812D02*
X42592Y613823D01*
X42147Y535128D02*
X42203Y535072D01*
X42603Y613834D02*
Y633370D01*
D23*
X104522Y405219D02*
D03*
Y414235D02*
D03*
D24*
X93042Y279886D02*
D03*
Y329886D02*
D03*
D25*
X328436Y37282D02*
D03*
X347766Y225538D02*
D03*
D26*
X328436Y62282D02*
D03*
D27*
X372766Y225538D02*
D03*
D28*
X368086Y443630D02*
D03*
X40078Y37334D02*
D03*
D29*
X393486Y443630D02*
D03*
X418886D02*
D03*
X444286D02*
D03*
X469686D02*
D03*
X65478Y37334D02*
D03*
X90878D02*
D03*
X116278D02*
D03*
X141678D02*
D03*
D30*
X406988Y51851D02*
D03*
D31*
X457788D02*
D03*
D32*
X100196Y553706D02*
D03*
X125596D02*
D03*
X150996D02*
D03*
X176396D02*
D03*
X201796D02*
D03*
X227196D02*
D03*
X252596D02*
D03*
X277996D02*
D03*
X303396D02*
D03*
X328796D02*
D03*
X354196D02*
D03*
X379596D02*
D03*
X100196Y629906D02*
D03*
X125596D02*
D03*
X150996D02*
D03*
X176396D02*
D03*
X201796D02*
D03*
X227196D02*
D03*
X252596D02*
D03*
X277996D02*
D03*
X303396D02*
D03*
X328796D02*
D03*
X354196D02*
D03*
X379596D02*
D03*
D33*
X26308Y124916D02*
D03*
Y150316D02*
D03*
Y175716D02*
D03*
D34*
Y201116D02*
D03*
D35*
X191568Y32160D02*
D03*
D36*
X216968D02*
D03*
X242368D02*
D03*
X267768D02*
D03*
X191568Y57560D02*
D03*
X216968D02*
D03*
X242368D02*
D03*
X267768D02*
D03*
D37*
X455540Y380006D02*
D03*
Y360006D02*
D03*
Y340006D02*
D03*
D38*
Y320006D02*
D03*
D39*
X355600Y373380D02*
D03*
X259080Y330200D02*
D03*
X234817Y328317D02*
D03*
X378460Y281940D02*
D03*
X393700Y393700D02*
D03*
X424180Y241300D02*
D03*
X243840Y208280D02*
D03*
X254000Y228600D02*
D03*
X352980Y307420D02*
D03*
X467360Y228600D02*
D03*
X426720Y101600D02*
D03*
X312420Y327660D02*
D03*
X325120Y317500D02*
D03*
X342900Y335280D02*
D03*
X327660Y350520D02*
D03*
X269240Y228600D02*
D03*
X246380Y101600D02*
D03*
X284480Y228600D02*
D03*
X299720D02*
D03*
X314960D02*
D03*
X172720Y248920D02*
D03*
X167640Y261620D02*
D03*
X139700Y406400D02*
D03*
X27940Y248920D02*
D03*
X78740Y462280D02*
D03*
D40*
X325000Y129032D02*
D03*
Y508508D02*
D03*
%TF.MD5,a88ce2df014b10bdf88cfdcf5acc04e6*%
M02*
