%TF.GenerationSoftware,Altium Limited,Altium Designer,20.0.13 (296)*%
G04 Layer_Color=2752767*
%FSLAX44Y44*%
%MOMM*%
%TF.FileFunction,Drawing*%
%TF.Part,Single*%
G01*
G75*
%TA.AperFunction,NonConductor*%
%ADD62C,0.1270*%
%ADD91C,0.1693*%
D62*
X99442Y400139D02*
Y410299D01*
X109602D01*
Y400139D01*
X99442D01*
Y409155D02*
Y419315D01*
X109602D01*
Y409155D01*
X99442D01*
X328436Y32202D02*
X323356Y42362D01*
X333516D01*
X328436Y32202D01*
Y57202D02*
X323356Y67362D01*
X333516D01*
X328436Y57202D01*
X347766Y220458D02*
X342686Y230618D01*
X352845D01*
X347766Y220458D01*
X372766D02*
X367686Y230618D01*
X377845D01*
X372766Y220458D01*
X368086Y438550D02*
X370626Y441090D01*
X373166D01*
X370626Y443630D01*
X373166Y446170D01*
X370626D01*
X368086Y448710D01*
X365546Y446170D01*
X363006D01*
X365546Y443630D01*
X363006Y441090D01*
X365546D01*
X368086Y438550D01*
X393486D02*
X396026Y441090D01*
X398566D01*
X396026Y443630D01*
X398566Y446170D01*
X396026D01*
X393486Y448710D01*
X390946Y446170D01*
X388406D01*
X390946Y443630D01*
X388406Y441090D01*
X390946D01*
X393486Y438550D01*
X418886D02*
X421426Y441090D01*
X423966D01*
X421426Y443630D01*
X423966Y446170D01*
X421426D01*
X418886Y448710D01*
X416346Y446170D01*
X413806D01*
X416346Y443630D01*
X413806Y441090D01*
X416346D01*
X418886Y438550D01*
X444286D02*
X446826Y441090D01*
X449366D01*
X446826Y443630D01*
X449366Y446170D01*
X446826D01*
X444286Y448710D01*
X441746Y446170D01*
X439206D01*
X441746Y443630D01*
X439206Y441090D01*
X441746D01*
X444286Y438550D01*
X469686D02*
X472226Y441090D01*
X474766D01*
X472226Y443630D01*
X474766Y446170D01*
X472226D01*
X469686Y448710D01*
X467146Y446170D01*
X464606D01*
X467146Y443630D01*
X464606Y441090D01*
X467146D01*
X469686Y438550D01*
X401908Y46771D02*
X404448Y51851D01*
X401908Y56931D01*
X406988Y54391D01*
X412068Y56931D01*
X409528Y51851D01*
X412068Y46771D01*
X406988Y49311D01*
X401908Y46771D01*
X452708D02*
X455248Y51851D01*
X452708Y56931D01*
X457788Y54391D01*
X462868Y56931D01*
X460328Y51851D01*
X462868Y46771D01*
X457788Y49311D01*
X452708Y46771D01*
X100196Y548626D02*
X102736Y551166D01*
X105276D01*
X102736Y553706D01*
X105276Y556246D01*
X102736D01*
X100196Y558786D01*
X97656Y556246D01*
X95116D01*
X97656Y553706D01*
X95116Y551166D01*
X97656D01*
X100196Y548626D01*
X125596D02*
X128136Y551166D01*
X130676D01*
X128136Y553706D01*
X130676Y556246D01*
X128136D01*
X125596Y558786D01*
X123056Y556246D01*
X120516D01*
X123056Y553706D01*
X120516Y551166D01*
X123056D01*
X125596Y548626D01*
X150996D02*
X153536Y551166D01*
X156076D01*
X153536Y553706D01*
X156076Y556246D01*
X153536D01*
X150996Y558786D01*
X148456Y556246D01*
X145916D01*
X148456Y553706D01*
X145916Y551166D01*
X148456D01*
X150996Y548626D01*
X176396D02*
X178936Y551166D01*
X181476D01*
X178936Y553706D01*
X181476Y556246D01*
X178936D01*
X176396Y558786D01*
X173856Y556246D01*
X171316D01*
X173856Y553706D01*
X171316Y551166D01*
X173856D01*
X176396Y548626D01*
X201796D02*
X204336Y551166D01*
X206876D01*
X204336Y553706D01*
X206876Y556246D01*
X204336D01*
X201796Y558786D01*
X199256Y556246D01*
X196716D01*
X199256Y553706D01*
X196716Y551166D01*
X199256D01*
X201796Y548626D01*
X227196D02*
X229736Y551166D01*
X232276D01*
X229736Y553706D01*
X232276Y556246D01*
X229736D01*
X227196Y558786D01*
X224656Y556246D01*
X222116D01*
X224656Y553706D01*
X222116Y551166D01*
X224656D01*
X227196Y548626D01*
X252596D02*
X255136Y551166D01*
X257676D01*
X255136Y553706D01*
X257676Y556246D01*
X255136D01*
X252596Y558786D01*
X250056Y556246D01*
X247516D01*
X250056Y553706D01*
X247516Y551166D01*
X250056D01*
X252596Y548626D01*
X277996D02*
X280536Y551166D01*
X283076D01*
X280536Y553706D01*
X283076Y556246D01*
X280536D01*
X277996Y558786D01*
X275456Y556246D01*
X272916D01*
X275456Y553706D01*
X272916Y551166D01*
X275456D01*
X277996Y548626D01*
X303396D02*
X305936Y551166D01*
X308476D01*
X305936Y553706D01*
X308476Y556246D01*
X305936D01*
X303396Y558786D01*
X300856Y556246D01*
X298316D01*
X300856Y553706D01*
X298316Y551166D01*
X300856D01*
X303396Y548626D01*
X328796D02*
X331336Y551166D01*
X333876D01*
X331336Y553706D01*
X333876Y556246D01*
X331336D01*
X328796Y558786D01*
X326256Y556246D01*
X323716D01*
X326256Y553706D01*
X323716Y551166D01*
X326256D01*
X328796Y548626D01*
X354196D02*
X356736Y551166D01*
X359276D01*
X356736Y553706D01*
X359276Y556246D01*
X356736D01*
X354196Y558786D01*
X351656Y556246D01*
X349116D01*
X351656Y553706D01*
X349116Y551166D01*
X351656D01*
X354196Y548626D01*
X379596D02*
X382136Y551166D01*
X384676D01*
X382136Y553706D01*
X384676Y556246D01*
X382136D01*
X379596Y558786D01*
X377056Y556246D01*
X374516D01*
X377056Y553706D01*
X374516Y551166D01*
X377056D01*
X379596Y548626D01*
X100196Y624826D02*
X102736Y627366D01*
X105276D01*
X102736Y629906D01*
X105276Y632446D01*
X102736D01*
X100196Y634986D01*
X97656Y632446D01*
X95116D01*
X97656Y629906D01*
X95116Y627366D01*
X97656D01*
X100196Y624826D01*
X125596D02*
X128136Y627366D01*
X130676D01*
X128136Y629906D01*
X130676Y632446D01*
X128136D01*
X125596Y634986D01*
X123056Y632446D01*
X120516D01*
X123056Y629906D01*
X120516Y627366D01*
X123056D01*
X125596Y624826D01*
X150996D02*
X153536Y627366D01*
X156076D01*
X153536Y629906D01*
X156076Y632446D01*
X153536D01*
X150996Y634986D01*
X148456Y632446D01*
X145916D01*
X148456Y629906D01*
X145916Y627366D01*
X148456D01*
X150996Y624826D01*
X176396D02*
X178936Y627366D01*
X181476D01*
X178936Y629906D01*
X181476Y632446D01*
X178936D01*
X176396Y634986D01*
X173856Y632446D01*
X171316D01*
X173856Y629906D01*
X171316Y627366D01*
X173856D01*
X176396Y624826D01*
X201796D02*
X204336Y627366D01*
X206876D01*
X204336Y629906D01*
X206876Y632446D01*
X204336D01*
X201796Y634986D01*
X199256Y632446D01*
X196716D01*
X199256Y629906D01*
X196716Y627366D01*
X199256D01*
X201796Y624826D01*
X227196D02*
X229736Y627366D01*
X232276D01*
X229736Y629906D01*
X232276Y632446D01*
X229736D01*
X227196Y634986D01*
X224656Y632446D01*
X222116D01*
X224656Y629906D01*
X222116Y627366D01*
X224656D01*
X227196Y624826D01*
X252596D02*
X255136Y627366D01*
X257676D01*
X255136Y629906D01*
X257676Y632446D01*
X255136D01*
X252596Y634986D01*
X250056Y632446D01*
X247516D01*
X250056Y629906D01*
X247516Y627366D01*
X250056D01*
X252596Y624826D01*
X277996D02*
X280536Y627366D01*
X283076D01*
X280536Y629906D01*
X283076Y632446D01*
X280536D01*
X277996Y634986D01*
X275456Y632446D01*
X272916D01*
X275456Y629906D01*
X272916Y627366D01*
X275456D01*
X277996Y624826D01*
X303396D02*
X305936Y627366D01*
X308476D01*
X305936Y629906D01*
X308476Y632446D01*
X305936D01*
X303396Y634986D01*
X300856Y632446D01*
X298316D01*
X300856Y629906D01*
X298316Y627366D01*
X300856D01*
X303396Y624826D01*
X328796D02*
X331336Y627366D01*
X333876D01*
X331336Y629906D01*
X333876Y632446D01*
X331336D01*
X328796Y634986D01*
X326256Y632446D01*
X323716D01*
X326256Y629906D01*
X323716Y627366D01*
X326256D01*
X328796Y624826D01*
X354196D02*
X356736Y627366D01*
X359276D01*
X356736Y629906D01*
X359276Y632446D01*
X356736D01*
X354196Y634986D01*
X351656Y632446D01*
X349116D01*
X351656Y629906D01*
X349116Y627366D01*
X351656D01*
X354196Y624826D01*
X379596D02*
X382136Y627366D01*
X384676D01*
X382136Y629906D01*
X384676Y632446D01*
X382136D01*
X379596Y634986D01*
X377056Y632446D01*
X374516D01*
X377056Y629906D01*
X374516Y627366D01*
X377056D01*
X379596Y624826D01*
X26308Y119836D02*
X28848Y122376D01*
X31388D01*
X28848Y124916D01*
X31388Y127456D01*
X28848D01*
X26308Y129996D01*
X23768Y127456D01*
X21228D01*
X23768Y124916D01*
X21228Y122376D01*
X23768D01*
X26308Y119836D01*
Y145236D02*
X28848Y147776D01*
X31388D01*
X28848Y150316D01*
X31388Y152856D01*
X28848D01*
X26308Y155396D01*
X23768Y152856D01*
X21228D01*
X23768Y150316D01*
X21228Y147776D01*
X23768D01*
X26308Y145236D01*
Y170636D02*
X28848Y173176D01*
X31388D01*
X28848Y175716D01*
X31388Y178256D01*
X28848D01*
X26308Y180796D01*
X23768Y178256D01*
X21228D01*
X23768Y175716D01*
X21228Y173176D01*
X23768D01*
X26308Y170636D01*
Y196036D02*
X28848Y198576D01*
X31388D01*
X28848Y201116D01*
X31388Y203656D01*
X28848D01*
X26308Y206196D01*
X23768Y203656D01*
X21228D01*
X23768Y201116D01*
X21228Y198576D01*
X23768D01*
X26308Y196036D01*
X191568Y27080D02*
X194108Y29620D01*
X196648D01*
X194108Y32160D01*
X196648Y34700D01*
X194108D01*
X191568Y37240D01*
X189028Y34700D01*
X186488D01*
X189028Y32160D01*
X186488Y29620D01*
X189028D01*
X191568Y27080D01*
X216968D02*
X219508Y29620D01*
X222048D01*
X219508Y32160D01*
X222048Y34700D01*
X219508D01*
X216968Y37240D01*
X214428Y34700D01*
X211888D01*
X214428Y32160D01*
X211888Y29620D01*
X214428D01*
X216968Y27080D01*
X242368D02*
X244908Y29620D01*
X247448D01*
X244908Y32160D01*
X247448Y34700D01*
X244908D01*
X242368Y37240D01*
X239828Y34700D01*
X237288D01*
X239828Y32160D01*
X237288Y29620D01*
X239828D01*
X242368Y27080D01*
X267768D02*
X270308Y29620D01*
X272848D01*
X270308Y32160D01*
X272848Y34700D01*
X270308D01*
X267768Y37240D01*
X265228Y34700D01*
X262688D01*
X265228Y32160D01*
X262688Y29620D01*
X265228D01*
X267768Y27080D01*
X191568Y52480D02*
X194108Y55020D01*
X196648D01*
X194108Y57560D01*
X196648Y60100D01*
X194108D01*
X191568Y62640D01*
X189028Y60100D01*
X186488D01*
X189028Y57560D01*
X186488Y55020D01*
X189028D01*
X191568Y52480D01*
X216968D02*
X219508Y55020D01*
X222048D01*
X219508Y57560D01*
X222048Y60100D01*
X219508D01*
X216968Y62640D01*
X214428Y60100D01*
X211888D01*
X214428Y57560D01*
X211888Y55020D01*
X214428D01*
X216968Y52480D01*
X242368D02*
X244908Y55020D01*
X247448D01*
X244908Y57560D01*
X247448Y60100D01*
X244908D01*
X242368Y62640D01*
X239828Y60100D01*
X237288D01*
X239828Y57560D01*
X237288Y55020D01*
X239828D01*
X242368Y52480D01*
X267768D02*
X270308Y55020D01*
X272848D01*
X270308Y57560D01*
X272848Y60100D01*
X270308D01*
X267768Y62640D01*
X265228Y60100D01*
X262688D01*
X265228Y57560D01*
X262688Y55020D01*
X265228D01*
X267768Y52480D01*
X455540Y374926D02*
X458080Y377466D01*
X460620D01*
X458080Y380006D01*
X460620Y382546D01*
X458080D01*
X455540Y385086D01*
X453000Y382546D01*
X450460D01*
X453000Y380006D01*
X450460Y377466D01*
X453000D01*
X455540Y374926D01*
Y354926D02*
X458080Y357466D01*
X460620D01*
X458080Y360006D01*
X460620Y362546D01*
X458080D01*
X455540Y365086D01*
X453000Y362546D01*
X450460D01*
X453000Y360006D01*
X450460Y357466D01*
X453000D01*
X455540Y354926D01*
Y334926D02*
X458080Y337466D01*
X460620D01*
X458080Y340006D01*
X460620Y342546D01*
X458080D01*
X455540Y345086D01*
X453000Y342546D01*
X450460D01*
X453000Y340006D01*
X450460Y337466D01*
X453000D01*
X455540Y334926D01*
Y314926D02*
X458080Y317466D01*
X460620D01*
X458080Y320006D01*
X460620Y322546D01*
X458080D01*
X455540Y325086D01*
X453000Y322546D01*
X450460D01*
X453000Y320006D01*
X450460Y317466D01*
X453000D01*
X455540Y314926D01*
X40078Y32254D02*
X42618Y34794D01*
X45158D01*
X42618Y37334D01*
X45158Y39874D01*
X42618D01*
X40078Y42414D01*
X37538Y39874D01*
X34998D01*
X37538Y37334D01*
X34998Y34794D01*
X37538D01*
X40078Y32254D01*
X65478D02*
X68018Y34794D01*
X70558D01*
X68018Y37334D01*
X70558Y39874D01*
X68018D01*
X65478Y42414D01*
X62938Y39874D01*
X60398D01*
X62938Y37334D01*
X60398Y34794D01*
X62938D01*
X65478Y32254D01*
X90878D02*
X93418Y34794D01*
X95958D01*
X93418Y37334D01*
X95958Y39874D01*
X93418D01*
X90878Y42414D01*
X88338Y39874D01*
X85798D01*
X88338Y37334D01*
X85798Y34794D01*
X88338D01*
X90878Y32254D01*
X116278D02*
X118818Y34794D01*
X121358D01*
X118818Y37334D01*
X121358Y39874D01*
X118818D01*
X116278Y42414D01*
X113738Y39874D01*
X111198D01*
X113738Y37334D01*
X111198Y34794D01*
X113738D01*
X116278Y32254D01*
X141678D02*
X144218Y34794D01*
X146758D01*
X144218Y37334D01*
X146758Y39874D01*
X144218D01*
X141678Y42414D01*
X139138Y39874D01*
X136598D01*
X139138Y37334D01*
X136598Y34794D01*
X139138D01*
X141678Y32254D01*
X353060Y370840D02*
Y368300D01*
X358140D01*
Y370840D01*
X360680D01*
Y375920D01*
X358140D01*
Y378460D01*
X353060D01*
Y375920D01*
X350520D01*
Y370840D01*
X353060D01*
X256540Y327660D02*
Y325120D01*
X261620D01*
Y327660D01*
X264160D01*
Y332740D01*
X261620D01*
Y335280D01*
X256540D01*
Y332740D01*
X254000D01*
Y327660D01*
X256540D01*
X232277Y325778D02*
Y323237D01*
X237357D01*
Y325778D01*
X239897D01*
Y330858D01*
X237357D01*
Y333397D01*
X232277D01*
Y330858D01*
X229737D01*
Y325778D01*
X232277D01*
X375920Y279400D02*
Y276860D01*
X381000D01*
Y279400D01*
X383540D01*
Y284480D01*
X381000D01*
Y287020D01*
X375920D01*
Y284480D01*
X373380D01*
Y279400D01*
X375920D01*
X391160Y391160D02*
Y388620D01*
X396240D01*
Y391160D01*
X398780D01*
Y396240D01*
X396240D01*
Y398780D01*
X391160D01*
Y396240D01*
X388620D01*
Y391160D01*
X391160D01*
X421640Y238760D02*
Y236220D01*
X426720D01*
Y238760D01*
X429260D01*
Y243840D01*
X426720D01*
Y246380D01*
X421640D01*
Y243840D01*
X419100D01*
Y238760D01*
X421640D01*
X241300Y205740D02*
Y203200D01*
X246380D01*
Y205740D01*
X248920D01*
Y210820D01*
X246380D01*
Y213360D01*
X241300D01*
Y210820D01*
X238760D01*
Y205740D01*
X241300D01*
X251460Y226060D02*
Y223520D01*
X256540D01*
Y226060D01*
X259080D01*
Y231140D01*
X256540D01*
Y233680D01*
X251460D01*
Y231140D01*
X248920D01*
Y226060D01*
X251460D01*
X350440Y304880D02*
Y302340D01*
X355520D01*
Y304880D01*
X358060D01*
Y309960D01*
X355520D01*
Y312500D01*
X350440D01*
Y309960D01*
X347900D01*
Y304880D01*
X350440D01*
X464820Y226060D02*
Y223520D01*
X469900D01*
Y226060D01*
X472440D01*
Y231140D01*
X469900D01*
Y233680D01*
X464820D01*
Y231140D01*
X462280D01*
Y226060D01*
X464820D01*
X424180Y99060D02*
Y96520D01*
X429260D01*
Y99060D01*
X431800D01*
Y104140D01*
X429260D01*
Y106680D01*
X424180D01*
Y104140D01*
X421640D01*
Y99060D01*
X424180D01*
X309880Y325120D02*
Y322580D01*
X314960D01*
Y325120D01*
X317500D01*
Y330200D01*
X314960D01*
Y332740D01*
X309880D01*
Y330200D01*
X307340D01*
Y325120D01*
X309880D01*
X322580Y314960D02*
Y312420D01*
X327660D01*
Y314960D01*
X330200D01*
Y320040D01*
X327660D01*
Y322580D01*
X322580D01*
Y320040D01*
X320040D01*
Y314960D01*
X322580D01*
X340360Y332740D02*
Y330200D01*
X345440D01*
Y332740D01*
X347980D01*
Y337820D01*
X345440D01*
Y340360D01*
X340360D01*
Y337820D01*
X337820D01*
Y332740D01*
X340360D01*
X325120Y347980D02*
Y345440D01*
X330200D01*
Y347980D01*
X332740D01*
Y353060D01*
X330200D01*
Y355600D01*
X325120D01*
Y353060D01*
X322580D01*
Y347980D01*
X325120D01*
X266700Y226060D02*
Y223520D01*
X271780D01*
Y226060D01*
X274320D01*
Y231140D01*
X271780D01*
Y233680D01*
X266700D01*
Y231140D01*
X264160D01*
Y226060D01*
X266700D01*
X243840Y99060D02*
Y96520D01*
X248920D01*
Y99060D01*
X251460D01*
Y104140D01*
X248920D01*
Y106680D01*
X243840D01*
Y104140D01*
X241300D01*
Y99060D01*
X243840D01*
X281940Y226060D02*
Y223520D01*
X287020D01*
Y226060D01*
X289560D01*
Y231140D01*
X287020D01*
Y233680D01*
X281940D01*
Y231140D01*
X279400D01*
Y226060D01*
X281940D01*
X297180D02*
Y223520D01*
X302260D01*
Y226060D01*
X304800D01*
Y231140D01*
X302260D01*
Y233680D01*
X297180D01*
Y231140D01*
X294640D01*
Y226060D01*
X297180D01*
X312420D02*
Y223520D01*
X317500D01*
Y226060D01*
X320040D01*
Y231140D01*
X317500D01*
Y233680D01*
X312420D01*
Y231140D01*
X309880D01*
Y226060D01*
X312420D01*
X170180Y246380D02*
Y243840D01*
X175260D01*
Y246380D01*
X177800D01*
Y251460D01*
X175260D01*
Y254000D01*
X170180D01*
Y251460D01*
X167640D01*
Y246380D01*
X170180D01*
X165100Y259080D02*
Y256540D01*
X170180D01*
Y259080D01*
X172720D01*
Y264160D01*
X170180D01*
Y266700D01*
X165100D01*
Y264160D01*
X162560D01*
Y259080D01*
X165100D01*
X137160Y403860D02*
Y401320D01*
X142240D01*
Y403860D01*
X144780D01*
Y408940D01*
X142240D01*
Y411480D01*
X137160D01*
Y408940D01*
X134620D01*
Y403860D01*
X137160D01*
X25400Y246380D02*
Y243840D01*
X30480D01*
Y246380D01*
X33020D01*
Y251460D01*
X30480D01*
Y254000D01*
X25400D01*
Y251460D01*
X22860D01*
Y246380D01*
X25400D01*
X76200Y459740D02*
Y457200D01*
X81280D01*
Y459740D01*
X83820D01*
Y464820D01*
X81280D01*
Y467360D01*
X76200D01*
Y464820D01*
X73660D01*
Y459740D01*
X76200D01*
X319920Y123952D02*
X322460D01*
X325000Y126492D01*
X327540Y123952D01*
X330080D01*
Y126492D01*
X327540Y129032D01*
X330080Y131572D01*
Y134112D01*
X327540D01*
X325000Y131572D01*
X322460Y134112D01*
X319920D01*
Y131572D01*
X322460Y129032D01*
X319920Y126492D01*
Y123952D01*
Y503428D02*
X322460D01*
X325000Y505968D01*
X327540Y503428D01*
X330080D01*
Y505968D01*
X327540Y508508D01*
X330080Y511048D01*
Y513588D01*
X327540D01*
X325000Y511048D01*
X322460Y513588D01*
X319920D01*
Y511048D01*
X322460Y508508D01*
X319920Y505968D01*
Y503428D01*
D91*
X98123Y279886D02*
G03*
X98123Y279886I-5080J0D01*
G01*
Y329886D02*
G03*
X98123Y329886I-5080J0D01*
G01*
%TF.MD5,c3ca9f7e1af50e9a4399a16156e2b7bd*%
M02*
