%TF.GenerationSoftware,Altium Limited,Altium Designer,20.0.13 (296)*%
G04 Layer_Color=255*
%FSLAX44Y44*%
%MOMM*%
%TF.FileFunction,Pads,Bot*%
%TF.Part,Single*%
G01*
G75*
%TA.AperFunction,ComponentPad*%
%ADD23C,0.5500*%
%ADD24C,1.2700*%
%ADD25C,1.2000*%
%ADD26R,1.2000X1.2000*%
%ADD27R,1.2000X1.2000*%
%ADD28R,1.4000X2.5000*%
%ADD29O,1.4000X2.5000*%
%ADD30C,3.0000*%
%ADD31R,3.0000X3.0000*%
%ADD32O,1.5240X2.5000*%
%ADD33O,2.5000X1.2000*%
%ADD34R,2.5000X1.2000*%
%ADD35R,1.4000X1.4000*%
%ADD36C,1.4000*%
%ADD37O,2.5000X1.4000*%
%ADD38R,2.5000X1.4000*%
D23*
X104522Y405219D02*
D03*
Y414235D02*
D03*
D24*
X93042Y279886D02*
D03*
Y329886D02*
D03*
D25*
X328436Y37282D02*
D03*
X347766Y225538D02*
D03*
D26*
X328436Y62282D02*
D03*
D27*
X372766Y225538D02*
D03*
D28*
X368086Y443630D02*
D03*
X40078Y37334D02*
D03*
D29*
X393486Y443630D02*
D03*
X418886D02*
D03*
X444286D02*
D03*
X469686D02*
D03*
X65478Y37334D02*
D03*
X90878D02*
D03*
X116278D02*
D03*
X141678D02*
D03*
D30*
X406988Y51851D02*
D03*
D31*
X457788D02*
D03*
D32*
X100196Y553706D02*
D03*
X125596D02*
D03*
X150996D02*
D03*
X176396D02*
D03*
X201796D02*
D03*
X227196D02*
D03*
X252596D02*
D03*
X277996D02*
D03*
X303396D02*
D03*
X328796D02*
D03*
X354196D02*
D03*
X379596D02*
D03*
X100196Y629906D02*
D03*
X125596D02*
D03*
X150996D02*
D03*
X176396D02*
D03*
X201796D02*
D03*
X227196D02*
D03*
X252596D02*
D03*
X277996D02*
D03*
X303396D02*
D03*
X328796D02*
D03*
X354196D02*
D03*
X379596D02*
D03*
D33*
X26308Y124916D02*
D03*
Y150316D02*
D03*
Y175716D02*
D03*
D34*
Y201116D02*
D03*
D35*
X191568Y32160D02*
D03*
D36*
X216968D02*
D03*
X242368D02*
D03*
X267768D02*
D03*
X191568Y57560D02*
D03*
X216968D02*
D03*
X242368D02*
D03*
X267768D02*
D03*
D37*
X455540Y380006D02*
D03*
Y360006D02*
D03*
Y340006D02*
D03*
D38*
Y320006D02*
D03*
%TF.MD5,45cec389654f75a0e80c4fcd5ef00a3f*%
M02*
