%TF.GenerationSoftware,Altium Limited,Altium Designer,20.0.13 (296)*%
G04 Layer_Color=8421504*
%FSLAX44Y44*%
%MOMM*%
%TF.FileFunction,Paste,Top*%
%TF.Part,Single*%
G01*
G75*
%TA.AperFunction,SMDPad,CuDef*%
%ADD10R,1.5000X1.4000*%
%ADD11O,1.0000X1.4000*%
%ADD12R,1.3000X0.3000*%
%ADD13R,0.3000X1.3000*%
%ADD14R,0.9500X1.4000*%
%ADD15R,1.4000X1.5000*%
%ADD16R,1.4000X0.9500*%
%ADD17R,1.2000X2.0000*%
%ADD18R,3.3500X2.1500*%
%ADD19R,1.2000X2.1500*%
D10*
X79120Y181102D02*
D03*
Y200602D02*
D03*
X31622Y481607D02*
D03*
Y462107D02*
D03*
X54482Y462163D02*
D03*
Y481663D02*
D03*
X57362Y181308D02*
D03*
Y200809D02*
D03*
X438362Y145382D02*
D03*
Y164882D02*
D03*
D11*
X152561Y212462D02*
D03*
X115561D02*
D03*
X152561Y160462D02*
D03*
X115561D02*
D03*
D12*
X208000Y352500D02*
D03*
Y347500D02*
D03*
Y342500D02*
D03*
Y337500D02*
D03*
Y332500D02*
D03*
Y327500D02*
D03*
Y322500D02*
D03*
Y317500D02*
D03*
Y312500D02*
D03*
Y307500D02*
D03*
Y302500D02*
D03*
Y297500D02*
D03*
X292000D02*
D03*
Y302500D02*
D03*
Y307500D02*
D03*
Y312500D02*
D03*
Y317500D02*
D03*
Y322500D02*
D03*
Y327500D02*
D03*
Y332500D02*
D03*
Y337500D02*
D03*
Y342500D02*
D03*
Y347500D02*
D03*
Y352500D02*
D03*
D13*
X222500Y283000D02*
D03*
X227500D02*
D03*
X232500D02*
D03*
X237500D02*
D03*
X242500D02*
D03*
X247500D02*
D03*
X252500D02*
D03*
X257500D02*
D03*
X262500D02*
D03*
X267500D02*
D03*
X272500D02*
D03*
X277500D02*
D03*
Y367000D02*
D03*
X272500D02*
D03*
X267500D02*
D03*
X262500D02*
D03*
X257500D02*
D03*
X252500D02*
D03*
X247500D02*
D03*
X242500D02*
D03*
X237500D02*
D03*
X232500D02*
D03*
X227500D02*
D03*
X222500D02*
D03*
D14*
X138885Y389604D02*
D03*
X157885D02*
D03*
X134735Y438118D02*
D03*
X153735D02*
D03*
X149686Y279686D02*
D03*
X130686D02*
D03*
X411534Y483584D02*
D03*
X430534D02*
D03*
X61203Y535072D02*
D03*
X42203D02*
D03*
X61147Y554630D02*
D03*
X42147D02*
D03*
X61185Y574188D02*
D03*
X42185D02*
D03*
X61383Y594000D02*
D03*
X42383D02*
D03*
X61581Y613812D02*
D03*
X42581D02*
D03*
X61603Y633370D02*
D03*
X42603D02*
D03*
X410115Y635868D02*
D03*
X429115D02*
D03*
X410078Y616056D02*
D03*
X429077D02*
D03*
X410148Y536814D02*
D03*
X429148D02*
D03*
X410047Y596295D02*
D03*
X429047D02*
D03*
X410095Y576764D02*
D03*
X429095D02*
D03*
X410096Y556764D02*
D03*
X429096D02*
D03*
X150459Y328454D02*
D03*
X131459D02*
D03*
D15*
X53313Y426592D02*
D03*
X33813D02*
D03*
X53437Y403478D02*
D03*
X33937D02*
D03*
X29172Y279782D02*
D03*
X48672D02*
D03*
X28945Y333122D02*
D03*
X48445D02*
D03*
D16*
X422688Y298936D02*
D03*
Y317936D02*
D03*
X394494Y297704D02*
D03*
Y316704D02*
D03*
D17*
X469444Y162469D02*
D03*
Y134469D02*
D03*
X404316Y134596D02*
D03*
Y162596D02*
D03*
D18*
X445248Y264077D02*
D03*
D19*
X468248Y204077D02*
D03*
X445248D02*
D03*
X422248D02*
D03*
%TF.MD5,f3f8bb544169e8096c84ccfbb54a2b46*%
M02*
