%TF.GenerationSoftware,Altium Limited,Altium Designer,20.0.13 (296)*%
G04 Layer_Color=128*
%FSLAX44Y44*%
%MOMM*%
%TF.FileFunction,Drillmap*%
%TF.Part,Single*%
G01*
G75*
%TA.AperFunction,NonConductor*%
%ADD62C,0.1270*%
D62*
X102622Y405219D02*
X106422D01*
X104522Y403319D02*
Y407119D01*
X102622Y414235D02*
X106422D01*
X104522Y412335D02*
Y416135D01*
X90542Y279886D02*
X95542D01*
X93042Y277386D02*
Y282386D01*
X90542Y329886D02*
X95542D01*
X93042Y327386D02*
Y332386D01*
X325436Y37282D02*
X331436D01*
X328436Y34282D02*
Y40282D01*
X325436Y62282D02*
X331436D01*
X328436Y59282D02*
Y65282D01*
X344766Y225538D02*
X350765D01*
X347766Y222538D02*
Y228538D01*
X369766Y225538D02*
X375765D01*
X372766Y222538D02*
Y228538D01*
X364086Y443630D02*
X372086D01*
X368086Y439630D02*
Y447630D01*
X389486Y443630D02*
X397486D01*
X393486Y439630D02*
Y447630D01*
X414886Y443630D02*
X422886D01*
X418886Y439630D02*
Y447630D01*
X440286Y443630D02*
X448286D01*
X444286Y439630D02*
Y447630D01*
X465686Y443630D02*
X473686D01*
X469686Y439630D02*
Y447630D01*
X399488Y51851D02*
X414488D01*
X406988Y44351D02*
Y59351D01*
X450288Y51851D02*
X465288D01*
X457788Y44351D02*
Y59351D01*
X96196Y553706D02*
X104196D01*
X100196Y549706D02*
Y557706D01*
X121596Y553706D02*
X129596D01*
X125596Y549706D02*
Y557706D01*
X146996Y553706D02*
X154996D01*
X150996Y549706D02*
Y557706D01*
X172396Y553706D02*
X180396D01*
X176396Y549706D02*
Y557706D01*
X197796Y553706D02*
X205796D01*
X201796Y549706D02*
Y557706D01*
X223196Y553706D02*
X231196D01*
X227196Y549706D02*
Y557706D01*
X248596Y553706D02*
X256596D01*
X252596Y549706D02*
Y557706D01*
X273996Y553706D02*
X281996D01*
X277996Y549706D02*
Y557706D01*
X299396Y553706D02*
X307396D01*
X303396Y549706D02*
Y557706D01*
X324796Y553706D02*
X332796D01*
X328796Y549706D02*
Y557706D01*
X350196Y553706D02*
X358196D01*
X354196Y549706D02*
Y557706D01*
X375596Y553706D02*
X383596D01*
X379596Y549706D02*
Y557706D01*
X96196Y629906D02*
X104196D01*
X100196Y625906D02*
Y633906D01*
X121596Y629906D02*
X129596D01*
X125596Y625906D02*
Y633906D01*
X146996Y629906D02*
X154996D01*
X150996Y625906D02*
Y633906D01*
X172396Y629906D02*
X180396D01*
X176396Y625906D02*
Y633906D01*
X197796Y629906D02*
X205796D01*
X201796Y625906D02*
Y633906D01*
X223196Y629906D02*
X231196D01*
X227196Y625906D02*
Y633906D01*
X248596Y629906D02*
X256596D01*
X252596Y625906D02*
Y633906D01*
X273996Y629906D02*
X281996D01*
X277996Y625906D02*
Y633906D01*
X299396Y629906D02*
X307396D01*
X303396Y625906D02*
Y633906D01*
X324796Y629906D02*
X332796D01*
X328796Y625906D02*
Y633906D01*
X350196Y629906D02*
X358196D01*
X354196Y625906D02*
Y633906D01*
X375596Y629906D02*
X383596D01*
X379596Y625906D02*
Y633906D01*
X22308Y124916D02*
X30308D01*
X26308Y120916D02*
Y128916D01*
X22308Y150316D02*
X30308D01*
X26308Y146316D02*
Y154316D01*
X22308Y175716D02*
X30308D01*
X26308Y171716D02*
Y179716D01*
X22308Y201116D02*
X30308D01*
X26308Y197116D02*
Y205116D01*
X187568Y32160D02*
X195568D01*
X191568Y28160D02*
Y36160D01*
X212968Y32160D02*
X220968D01*
X216968Y28160D02*
Y36160D01*
X238368Y32160D02*
X246368D01*
X242368Y28160D02*
Y36160D01*
X263768Y32160D02*
X271768D01*
X267768Y28160D02*
Y36160D01*
X187568Y57560D02*
X195568D01*
X191568Y53560D02*
Y61560D01*
X212968Y57560D02*
X220968D01*
X216968Y53560D02*
Y61560D01*
X238368Y57560D02*
X246368D01*
X242368Y53560D02*
Y61560D01*
X263768Y57560D02*
X271768D01*
X267768Y53560D02*
Y61560D01*
X451540Y380006D02*
X459540D01*
X455540Y376006D02*
Y384006D01*
X451540Y360006D02*
X459540D01*
X455540Y356006D02*
Y364006D01*
X451540Y340006D02*
X459540D01*
X455540Y336006D02*
Y344006D01*
X451540Y320006D02*
X459540D01*
X455540Y316006D02*
Y324006D01*
X36078Y37334D02*
X44078D01*
X40078Y33334D02*
Y41334D01*
X61478Y37334D02*
X69478D01*
X65478Y33334D02*
Y41334D01*
X86878Y37334D02*
X94878D01*
X90878Y33334D02*
Y41334D01*
X112278Y37334D02*
X120278D01*
X116278Y33334D02*
Y41334D01*
X137678Y37334D02*
X145678D01*
X141678Y33334D02*
Y41334D01*
X353060Y373380D02*
X358140D01*
X355600Y370840D02*
Y375920D01*
X256540Y330200D02*
X261620D01*
X259080Y327660D02*
Y332740D01*
X232277Y328317D02*
X237357D01*
X234817Y325778D02*
Y330858D01*
X375920Y281940D02*
X381000D01*
X378460Y279400D02*
Y284480D01*
X391160Y393700D02*
X396240D01*
X393700Y391160D02*
Y396240D01*
X421640Y241300D02*
X426720D01*
X424180Y238760D02*
Y243840D01*
X241300Y208280D02*
X246380D01*
X243840Y205740D02*
Y210820D01*
X251460Y228600D02*
X256540D01*
X254000Y226060D02*
Y231140D01*
X350440Y307420D02*
X355520D01*
X352980Y304880D02*
Y309960D01*
X464820Y228600D02*
X469900D01*
X467360Y226060D02*
Y231140D01*
X424180Y101600D02*
X429260D01*
X426720Y99060D02*
Y104140D01*
X309880Y327660D02*
X314960D01*
X312420Y325120D02*
Y330200D01*
X322580Y317500D02*
X327660D01*
X325120Y314960D02*
Y320040D01*
X340360Y335280D02*
X345440D01*
X342900Y332740D02*
Y337820D01*
X325120Y350520D02*
X330200D01*
X327660Y347980D02*
Y353060D01*
X266700Y228600D02*
X271780D01*
X269240Y226060D02*
Y231140D01*
X243840Y101600D02*
X248920D01*
X246380Y99060D02*
Y104140D01*
X281940Y228600D02*
X287020D01*
X284480Y226060D02*
Y231140D01*
X297180Y228600D02*
X302260D01*
X299720Y226060D02*
Y231140D01*
X312420Y228600D02*
X317500D01*
X314960Y226060D02*
Y231140D01*
X170180Y248920D02*
X175260D01*
X172720Y246380D02*
Y251460D01*
X165100Y261620D02*
X170180D01*
X167640Y259080D02*
Y264160D01*
X137160Y406400D02*
X142240D01*
X139700Y403860D02*
Y408940D01*
X25400Y248920D02*
X30480D01*
X27940Y246380D02*
Y251460D01*
X76200Y462280D02*
X81280D01*
X78740Y459740D02*
Y464820D01*
X305000Y129032D02*
X345000D01*
X325000Y109032D02*
Y149032D01*
X305000Y508508D02*
X345000D01*
X325000Y488508D02*
Y528508D01*
%TF.MD5,0034b75904704d309d1d79a45b1b02a3*%
M02*
